<svg xmlns="http://www.w3.org/2000/svg" xmlns:xlink="http://www.w3.org/1999/xlink" viewBox="0 0 1020.35 1063.85"><defs><style>.cls-1{opacity:0.1;fill:url(#linear-gradient);}.cls-2{fill:#bdd0fb;}.cls-3{fill:#91b3fa;}.cls-4{fill:#dce5fe;}.cls-5{fill:url(#linear-gradient-2);}.cls-6{fill:url(#linear-gradient-3);}.cls-7{fill:url(#linear-gradient-4);}.cls-8{fill:url(#linear-gradient-5);}.cls-9{fill:url(#linear-gradient-6);}.cls-10{fill:url(#linear-gradient-7);}.cls-11{fill:url(#linear-gradient-8);}.cls-12{fill:url(#linear-gradient-9);}.cls-13{fill:url(#linear-gradient-10);}.cls-14{fill:url(#linear-gradient-11);}.cls-15{fill:url(#linear-gradient-12);}.cls-16{fill:url(#linear-gradient-13);}.cls-17{fill:url(#linear-gradient-14);}.cls-18{fill:#7d97f4;}.cls-19{fill:url(#linear-gradient-15);}.cls-20{fill:url(#linear-gradient-16);}.cls-21{fill:url(#linear-gradient-17);}.cls-22{fill:url(#linear-gradient-18);}.cls-23{fill:url(#linear-gradient-19);}.cls-24{fill:url(#linear-gradient-20);}.cls-25{fill:url(#linear-gradient-21);}.cls-26{fill:url(#linear-gradient-22);}.cls-27{fill:url(#linear-gradient-23);}.cls-28{fill:url(#linear-gradient-24);}.cls-29{fill:url(#linear-gradient-25);}.cls-30{fill:url(#linear-gradient-26);}.cls-31{fill:url(#linear-gradient-27);}.cls-32{fill:url(#linear-gradient-28);}.cls-33{fill:url(#linear-gradient-29);}.cls-34{fill:url(#linear-gradient-30);}.cls-35{fill:url(#linear-gradient-31);}.cls-36{fill:url(#linear-gradient-32);}.cls-37{fill:url(#linear-gradient-33);}.cls-38{fill:url(#linear-gradient-34);}.cls-39{fill:url(#linear-gradient-35);}.cls-40{fill:url(#linear-gradient-36);}.cls-41{fill:url(#linear-gradient-37);}.cls-42{fill:url(#linear-gradient-38);}.cls-43{fill:url(#linear-gradient-39);}.cls-44{fill:url(#linear-gradient-40);}.cls-45{fill:url(#linear-gradient-41);}.cls-46{fill:url(#linear-gradient-42);}.cls-47{fill:url(#linear-gradient-43);}.cls-48{fill:url(#linear-gradient-44);}.cls-49{fill:url(#linear-gradient-45);}.cls-50{fill:url(#linear-gradient-46);}.cls-51{fill:url(#linear-gradient-47);}.cls-52{fill:url(#linear-gradient-48);}.cls-53{fill:url(#linear-gradient-49);}.cls-54{fill:url(#linear-gradient-50);}.cls-55{fill:url(#linear-gradient-51);}.cls-56{fill:url(#linear-gradient-52);}.cls-57{fill:url(#linear-gradient-53);}.cls-58{fill:url(#linear-gradient-54);}</style><linearGradient id="linear-gradient" x1="29.52" y1="557.3" x2="1049.88" y2="557.3" gradientUnits="userSpaceOnUse"><stop offset="0" stop-color="#4f52ff"/><stop offset="1" stop-color="#4042e2"/></linearGradient><linearGradient id="linear-gradient-2" x1="41.85" y1="886.51" x2="148.46" y2="886.51" gradientTransform="matrix(1, 0, 0, -1, 0, 1082)" gradientUnits="userSpaceOnUse"><stop offset="0" stop-color="#fe7062"/><stop offset="1" stop-color="#ff928e"/></linearGradient><linearGradient id="linear-gradient-3" x1="11183.26" y1="-219.87" x2="11180.35" y2="-227.47" gradientTransform="translate(11459.01 1791.15) rotate(-173.66)" gradientUnits="userSpaceOnUse"><stop offset="0" stop-color="#a737d5"/><stop offset="1" stop-color="#ef497a"/></linearGradient><linearGradient id="linear-gradient-4" x1="774.87" y1="720.46" x2="-110.64" y2="-288.88" gradientTransform="matrix(1, 0, 0, -1, 0, 1082)" gradientUnits="userSpaceOnUse"><stop offset="0" stop-color="#09005d"/><stop offset="1" stop-color="#1a0f91"/></linearGradient><linearGradient id="linear-gradient-5" x1="221.82" y1="554.42" x2="236.9" y2="554.42" gradientTransform="matrix(1, 0, 0, -1, 0, 1082)" gradientUnits="userSpaceOnUse"><stop offset="0" stop-color="#dae3fe"/><stop offset="1" stop-color="#e9effd"/></linearGradient><linearGradient id="linear-gradient-6" x1="273.38" y1="705.65" x2="671.72" y2="705.65" xlink:href="#linear-gradient-5"/><linearGradient id="linear-gradient-7" x1="552.4" y1="468.01" x2="180.93" y2="19.43" gradientTransform="matrix(1, 0, 0, -1, 0, 1082)" gradientUnits="userSpaceOnUse"><stop offset="0" stop-color="#4042e2"/><stop offset="1" stop-color="#4f52ff"/></linearGradient><linearGradient id="linear-gradient-8" x1="609.04" y1="-228.12" x2="633.59" y2="-800.09" xlink:href="#linear-gradient-7"/><linearGradient id="linear-gradient-9" x1="380.01" y1="1880.79" x2="470.84" y2="974.96" xlink:href="#linear-gradient-7"/><linearGradient id="linear-gradient-10" x1="347.4" y1="186.58" x2="442.13" y2="186.58" gradientTransform="matrix(1, 0, 0, 1, 0, 0)" xlink:href="#linear-gradient-4"/><linearGradient id="linear-gradient-11" x1="457.6" y1="187.75" x2="563.72" y2="187.75" gradientTransform="matrix(1, 0, 0, 1, 0, 0)" xlink:href="#linear-gradient-4"/><linearGradient id="linear-gradient-12" x1="570.17" y1="188.29" x2="641.05" y2="188.29" gradientTransform="matrix(1, 0, 0, 1, 0, 0)" xlink:href="#linear-gradient-4"/><linearGradient id="linear-gradient-13" x1="652.23" y1="187.75" x2="746.1" y2="187.75" gradientTransform="matrix(1, 0, 0, 1, 0, 0)" xlink:href="#linear-gradient-4"/><linearGradient id="linear-gradient-14" x1="1138.09" y1="977.54" x2="481.78" y2="641.13" gradientTransform="matrix(0.71, 0.71, 0.71, -0.71, -346.75, 128.28)" xlink:href="#linear-gradient-2"/><linearGradient id="linear-gradient-15" x1="351.11" y1="-12.03" x2="743.56" y2="76.94" gradientTransform="matrix(0.82, 0.58, 0.58, -0.82, 124.85, 455.7)" xlink:href="#linear-gradient-2"/><linearGradient id="linear-gradient-16" x1="358.62" y1="-45.17" x2="751.07" y2="43.8" gradientTransform="matrix(0.82, 0.58, 0.58, -0.82, 124.85, 455.7)" xlink:href="#linear-gradient-2"/><linearGradient id="linear-gradient-17" x1="765.3" y1="561.43" x2="421.93" y2="673.67" gradientTransform="matrix(0.95, -0.32, -0.32, -0.95, 116.23, 1252.3)" xlink:href="#linear-gradient-2"/><linearGradient id="linear-gradient-18" x1="759.37" y1="543.27" x2="415.99" y2="655.52" gradientTransform="matrix(0.95, -0.32, -0.32, -0.95, 116.23, 1252.3)" xlink:href="#linear-gradient-2"/><linearGradient id="linear-gradient-19" x1="569.38" y1="455.08" x2="922.38" y2="455.08" gradientTransform="matrix(0.98, 0.21, 0.21, -0.98, -112.83, 926.96)" xlink:href="#linear-gradient-4"/><linearGradient id="linear-gradient-20" x1="769.48" y1="468.64" x2="900.96" y2="468.64" gradientTransform="matrix(0.98, 0.21, 0.21, -0.98, -112.83, 926.96)" xlink:href="#linear-gradient-5"/><linearGradient id="linear-gradient-21" x1="340.27" y1="625.02" x2="532.73" y2="625.02" xlink:href="#linear-gradient-4"/><linearGradient id="linear-gradient-22" x1="352.01" y1="705.17" x2="385.36" y2="705.17" xlink:href="#linear-gradient-5"/><linearGradient id="linear-gradient-23" x1="515.69" y1="458.57" x2="563.71" y2="458.57" xlink:href="#linear-gradient-4"/><linearGradient id="linear-gradient-24" x1="891.82" y1="405.95" x2="865.72" y2="325.93" gradientTransform="matrix(1, 0, 0, -1, 0, 1082)" gradientUnits="userSpaceOnUse"><stop offset="0" stop-color="#ff928e"/><stop offset="1" stop-color="#feb3b1"/></linearGradient><linearGradient id="linear-gradient-25" x1="886.3" y1="121.59" x2="941.3" y2="121.59" xlink:href="#linear-gradient-24"/><linearGradient id="linear-gradient-26" x1="961.92" y1="244.6" x2="934.68" y2="67.54" xlink:href="#linear-gradient-4"/><linearGradient id="linear-gradient-27" x1="904.27" y1="253.47" x2="877.03" y2="76.4" xlink:href="#linear-gradient-4"/><linearGradient id="linear-gradient-28" x1="852.92" y1="117.51" x2="884.77" y2="117.51" xlink:href="#linear-gradient-24"/><linearGradient id="linear-gradient-29" x1="784.3" y1="356.48" x2="846.66" y2="356.48" xlink:href="#linear-gradient-24"/><linearGradient id="linear-gradient-30" x1="852.64" y1="322.59" x2="969.55" y2="91.04" xlink:href="#linear-gradient-2"/><linearGradient id="linear-gradient-31" x1="824.78" y1="261.39" x2="926.94" y2="146.19" xlink:href="#linear-gradient-7"/><linearGradient id="linear-gradient-32" x1="862.58" y1="325.87" x2="882.08" y2="325.87" gradientTransform="matrix(1, 0, 0, -1, 0, 1082)" gradientUnits="userSpaceOnUse"><stop offset="0" stop-color="#f9b776"/><stop offset="1" stop-color="#f47960"/></linearGradient><linearGradient id="linear-gradient-33" x1="893.56" y1="351.07" x2="1035.43" y2="341.41" xlink:href="#linear-gradient-24"/><linearGradient id="linear-gradient-34" x1="916.87" y1="359.62" x2="866.93" y2="259.74" xlink:href="#linear-gradient-4"/><linearGradient id="linear-gradient-35" x1="-269.03" y1="-183.72" x2="-164.57" y2="-163.96" gradientTransform="matrix(1, 0, 0, -1, -939.65, 1082)" xlink:href="#linear-gradient-4"/><linearGradient id="linear-gradient-36" x1="1112.11" y1="91.83" x2="1123.06" y2="91.83" gradientTransform="matrix(1, 0, 0, -1, -939.65, 1082)" xlink:href="#linear-gradient-24"/><linearGradient id="linear-gradient-37" x1="1086.17" y1="175.55" x2="1122.35" y2="175.55" gradientTransform="matrix(1, 0, 0, -1, -939.65, 1082)" xlink:href="#linear-gradient-4"/><linearGradient id="linear-gradient-38" x1="-270.43" y1="-176.28" x2="-165.98" y2="-156.51" gradientTransform="matrix(1, 0, 0, -1, -939.65, 1082)" xlink:href="#linear-gradient-4"/><linearGradient id="linear-gradient-39" x1="1072.68" y1="92.42" x2="1082.12" y2="92.42" gradientTransform="matrix(1, 0, 0, -1, -939.65, 1082)" xlink:href="#linear-gradient-24"/><linearGradient id="linear-gradient-40" x1="1062.49" y1="176.72" x2="1113.86" y2="176.72" gradientTransform="matrix(1, 0, 0, -1, -939.65, 1082)" xlink:href="#linear-gradient-4"/><linearGradient id="linear-gradient-41" x1="1098.03" y1="288.62" x2="1072.66" y2="209.65" gradientTransform="matrix(1, 0, 0, -1, -939.65, 1082)" xlink:href="#linear-gradient-2"/><linearGradient id="linear-gradient-42" x1="1157.15" y1="377.36" x2="1213.05" y2="377.36" gradientTransform="matrix(1, 0, 0, -1, -939.65, 1082)" xlink:href="#linear-gradient-24"/><linearGradient id="linear-gradient-43" x1="8013.17" y1="386.73" x2="8050.69" y2="301.37" gradientTransform="translate(8274.13 1082) rotate(180)" xlink:href="#linear-gradient-24"/><linearGradient id="linear-gradient-44" x1="273.42" y1="471.4" x2="274.65" y2="405.93" xlink:href="#linear-gradient-24"/><linearGradient id="linear-gradient-45" x1="1050.39" y1="303.93" x2="1025.02" y2="224.96" gradientTransform="matrix(1, 0, 0, -1, -939.65, 1082)" xlink:href="#linear-gradient-2"/><linearGradient id="linear-gradient-46" x1="1034.8" y1="298.14" x2="1105.56" y2="298.14" gradientTransform="matrix(1, 0, 0, -1, -939.65, 1082)" xlink:href="#linear-gradient-24"/><linearGradient id="linear-gradient-47" x1="1126.98" y1="348.48" x2="1165.89" y2="186.37" gradientTransform="matrix(1, 0, 0, -1, -939.65, 1082)" xlink:href="#linear-gradient-7"/><linearGradient id="linear-gradient-48" x1="1151.33" y1="374.02" x2="1143.04" y2="337.63" gradientTransform="matrix(1, 0, 0, -1, -939.65, 1082)" xlink:href="#linear-gradient-4"/><linearGradient id="linear-gradient-49" x1="1146.99" y1="358.76" x2="1143.03" y2="334.98" gradientTransform="matrix(1, 0, 0, -1, -939.65, 1082)" xlink:href="#linear-gradient-4"/><linearGradient id="linear-gradient-50" x1="1100.31" y1="305.58" x2="1122.35" y2="305.58" gradientTransform="matrix(1, 0, 0, -1, -939.65, 1082)" xlink:href="#linear-gradient-24"/><linearGradient id="linear-gradient-51" x1="169.51" y1="399.9" x2="158.46" y2="347.12" xlink:href="#linear-gradient-24"/><linearGradient id="linear-gradient-52" x1="193.84" y1="411.98" x2="161.93" y2="388.66" xlink:href="#linear-gradient-24"/><linearGradient id="linear-gradient-53" x1="-4804.98" y1="2542.53" x2="-4796.23" y2="2492.67" gradientTransform="matrix(0.75, -0.67, -0.67, -0.75, 5440.12, -663.9)" xlink:href="#linear-gradient-4"/><linearGradient id="linear-gradient-54" x1="191.31" y1="415.44" x2="159.4" y2="392.12" xlink:href="#linear-gradient-24"/></defs><title>anytime</title><g id="Background"><path class="cls-1" d="M1007.11,740.78c-99,236.51-362.7,369-591.38,333.26-37.22-5.81-139.23-23.14-229.55-104.86C12.3,811.85-24.88,500.32,115.38,280.78,217.46,121,400.46,30.41,574.34,34.94c37.45,1,181,7,307.14,112.53a477.57,477.57,0,0,1,96.23,110.78C1064.19,395.47,1071.63,586.65,1007.11,740.78Z" transform="translate(-29.52 -15.97)"/></g><g id="Object"><path class="cls-2" d="M180.58,289c14.7,16.32,36.08,27,57,35.08,27.32,10.64,56.56,19.29,78.09,39.19,22.5,20.78,33.53,51.24,39.29,81.3s7.07,61,14.17,90.75c6.75,28.34,19.71,56.6,42.52,74.45-19.74-2.64-36-19.16-44-37.69-8.57-19.76-9.89-41.76-12.45-63.15s-6.9-43.57-20.17-60.54c-26.05-33.27-76.12-35.27-109.86-60.72-17.46-13.18-29.78-32.22-38.17-52.41-5.72-13.76-9.74-28.12-13.22-42.64A4,4,0,0,1,180.58,289Z" transform="translate(-29.52 -15.97)"/><path class="cls-3" d="M249.16,202.82c5.45-11,12.49-21.06,19.93-30.85a4.08,4.08,0,0,1,7.31,2.23c1,15.79,9.83,31.17,20.64,43.24C310.81,232.83,328,245,341,261c26.83,32.93,32.91,78.19,31.31,120.65s-9.77,84.74-7.1,127.14c1.28,20.22,5.19,40.72,15.46,58.19,10.07,17.14,27,31,46.69,33.87a.94.94,0,0,1,.8,1.07.5.5,0,0,1,0,.12h0a1,1,0,0,1-.69.69c-24.26,5.87-49.82-10.71-61.39-32.89-11.65-22.37-12-48.85-9.91-73.95s6.44-50.38,3.23-75.38a127,127,0,0,0-30.83-67.71C313.36,335.65,293.79,323,276.5,308s-33.1-33.84-36.61-56.48C237.32,234.94,241.69,217.86,249.16,202.82Z" transform="translate(-29.52 -15.97)"/><path class="cls-4" d="M271.92,206.9a77.9,77.9,0,0,0,4,12.86A113.49,113.49,0,0,0,281.69,232c1,2,2.23,3.92,3.36,5.86s2.45,3.78,3.65,5.68,2.61,3.66,3.92,5.5l4.19,5.29c1.45,1.74,2.95,3.4,4.42,5.1s3.11,3.26,4.66,4.9c3.12,3.25,6.44,6.42,9.63,9.69a259.72,259.72,0,0,1,18.53,20.36A127.43,127.43,0,0,1,358.4,343.6c4.67,17.83,6.36,36.18,6.74,54.43a.7.7,0,0,1-1.39.07h0l-1-13.61c-.51-4.52-1-9-1.58-13.53-1.43-9-2.92-17.93-5.47-26.6-1.08-4.4-2.71-8.61-4.15-12.89-1.74-4.14-3.39-8.35-5.54-12.31a128.38,128.38,0,0,0-14.64-22.61,250.79,250.79,0,0,0-18.4-20l-4.83-4.84c-1.62-1.61-3.26-3.16-4.84-4.86s-3.22-3.31-4.73-5.05-3.05-3.48-4.5-5.26l-4.21-5.5c-1.3-1.9-2.64-3.79-3.91-5.71s-2.46-3.91-3.58-5.93-2.27-4-3.25-6.11a99.7,99.7,0,0,1-5.3-12.78,69,69,0,0,1-3.26-13.47.7.7,0,0,1,.62-.77.69.69,0,0,1,.75.54Z" transform="translate(-29.52 -15.97)"/><path class="cls-2" d="M432.26,696.21a2.22,2.22,0,0,0-.49-3.11,2.26,2.26,0,0,0-1.18-.43c-19.69-.77-102-8.29-98.5-80.46,4-82,10.09-105.24-28.26-133.35-34.9-25.6-65.65-22.27-89.63-10.61a1.79,1.79,0,0,0,.77,3.39c16-.06,52.68,2.76,66.14,28.72C298.53,534,296.7,617.42,332.41,656.8c35.28,38.91,65.57,37.83,97.94,40.29a2.13,2.13,0,0,0,1.89-.87Z" transform="translate(-29.52 -15.97)"/><path class="cls-5" d="M148.46,120.67S52.25,94.67,41.85,203c0,0,3.47,82.33,106.61,68.47,0,0-50.27-19.94-49.41-79.74S148.46,120.67,148.46,120.67Z" transform="translate(-29.52 -15.97)"/><path class="cls-6" d="M370.61,800.51l-.78-.66c-1.49-1.22-3.07-2.6-4.78-4.2L363.3,794l2.34.51c1.84.4,3.68.7,5.52.92l.74.09Zm-2.95-4.25c.76.68,1.49,1.33,2.21,1.94l.39-1.54C369.39,796.54,368.52,796.42,367.66,796.26Z" transform="translate(-29.52 -15.97)"/><path class="cls-2" d="M873,255.17c-1.79-12.18-5.37-24-9.42-35.65A4.09,4.09,0,0,0,858.4,217a4.13,4.13,0,0,0-2.51,2.41c-5.88,14.75-19.08,26.68-33.17,34.84-17.93,10.39-38.11,16.62-55.55,27.83-35.87,23.08-55.77,64.4-67.48,105.4S682.6,471.37,666.84,511c-7.52,18.9-17.65,37.25-32.88,50.72-15,13.23-35.49,21.2-55.13,17.79a1,1,0,0,0-1.1.77.49.49,0,0,0,0,.12h0a.92.92,0,0,0,.45.85c21.32,13.16,50.89,5.3,68.84-12.26,18.09-17.71,26.69-42.84,32.5-67.48s9.55-50.09,20.4-73a127.49,127.49,0,0,1,50.55-55c19.87-11.6,42.45-17.52,63.65-26.49s42.13-22,52.54-42.5C874.27,289.52,875.43,271.86,873,255.17Z" transform="translate(-29.52 -15.97)"/><path class="cls-2" d="M911.58,358.81c-19.12,11-42.86,14.48-65.34,15.72-29.39,1.64-60,.79-86.75,13.05-28,12.83-48,38.46-62.84,65.38s-25.75,56-41.8,82.2C639.58,560.1,618.4,583,591.06,593c19.67,3.64,40.32-7.07,53.77-22.25,14.34-16.19,22.46-36.78,31.57-56.4s20.16-39.43,38.11-51.49c35.24-23.66,83.65-9.94,123.79-23.74,20.79-7.13,38.46-21.47,52.76-38.13,9.75-11.35,18.07-23.8,25.91-36.57A4,4,0,0,0,911.58,358.81Z" transform="translate(-29.52 -15.97)"/><path class="cls-4" d="M851.31,252.61A69.11,69.11,0,0,1,844,264.49a98.78,98.78,0,0,1-9,10.57c-1.58,1.7-3.32,3.24-5,4.83s-3.51,3-5.27,4.56-3.66,2.82-5.52,4.24l-5.73,3.93c-2,1.23-4,2.42-5.94,3.63s-4.08,2.23-6.11,3.34c-4.08,2.2-8.21,4.11-12.26,6.22a252.26,252.26,0,0,0-23.77,13.31,128.59,128.59,0,0,0-21,17c-3.27,3.1-6.15,6.6-9.12,10-2.71,3.63-5.58,7.14-8,11a214.83,214.83,0,0,0-13.53,23.64c-2,4.11-3.83,8.27-5.74,12.42l-5.23,12.66h0a.77.77,0,0,1-1.44-.55h0c6-17.31,13.34-34.34,23.35-49.9a127.57,127.57,0,0,1,38.61-39.47,261.39,261.39,0,0,1,24-13.68c4.08-2.12,8.23-4.12,12.23-6.24,2-1.08,4-2.07,6-3.22s3.88-2.3,5.8-3.49l5.65-3.74c1.82-1.34,3.67-2.65,5.45-4s3.56-2.78,5.26-4.27,3.43-2.94,5-4.54a113.88,113.88,0,0,0,9.32-9.83,79.55,79.55,0,0,0,7.87-11l0-.05a.78.78,0,0,1,1.06-.26.75.75,0,0,1,.3,1Z" transform="translate(-29.52 -15.97)"/><path class="cls-2" d="M605.85,679.88a2.08,2.08,0,0,1,.46-2.92,2.11,2.11,0,0,1,1.11-.4c18.46-.72,95.6-7.77,92.33-75.43-3.7-76.83-9.45-98.67,26.5-125,32.72-24,61.55-20.88,84-9.94a1.68,1.68,0,0,1-.73,3.17c-15,0-49.38,2.59-62,26.93C731.21,527.78,732.93,606,699.46,642.93c-33.08,36.48-61.47,35.46-91.82,37.77a2,2,0,0,1-1.77-.81Z" transform="translate(-29.52 -15.97)"/><path class="cls-7" d="M879.2,631.88c0,186.33-151.06,337.39-337.4,337.39S196,811.62,196,625.27,355.44,294.49,541.77,294.49,879.2,445.54,879.2,631.88Z" transform="translate(-29.52 -15.97)"/><path class="cls-8" d="M222.54,548.22h-.18a.7.7,0,0,1-.5-.86h0a303,303,0,0,1,13.7-40,.71.71,0,0,1,.93-.38h0a.7.7,0,0,1,.38.9v0a303.74,303.74,0,0,0-13.64,39.8A.71.71,0,0,1,222.54,548.22Z" transform="translate(-29.52 -15.97)"/><path class="cls-9" d="M274.09,442.78a.76.76,0,0,1-.43-.14.7.7,0,0,1-.13-1c62.2-82.49,162.41-131.73,268.05-131.73a319.64,319.64,0,0,1,129.66,27.17.71.71,0,0,1-.46,1.34l-.1-.05a318.3,318.3,0,0,0-129.1-27.05c-105.2,0-205,49-266.92,131.17A.72.72,0,0,1,274.09,442.78Z" transform="translate(-29.52 -15.97)"/><path class="cls-10" d="M833.26,631.88c0,161.3-130.75,292-292,292S241.93,787.46,241.93,626.16s138-286.33,299.28-286.33S833.26,470.58,833.26,631.88Z" transform="translate(-29.52 -15.97)"/><path class="cls-11" d="M833.26,631.88c0-161.3-130.75-292-292-292-87.34,0-167.84,36.67-223.3,95.91l225,187.18L589.14,920C727.61,897.14,833.26,776.86,833.26,631.88Z" transform="translate(-29.52 -15.97)"/><path class="cls-12" d="M793.51,611.58c0,145.56-120.45,263.57-269,263.57S248.76,752,248.76,606.42,375.87,348,524.48,348,793.51,466,793.51,611.58Z" transform="translate(-29.52 -15.97)"/><path class="cls-2" d="M316.57,616.73A22.49,22.49,0,1,1,295.42,593h0A22.5,22.5,0,0,1,316.57,616.73Z" transform="translate(-29.52 -15.97)"/><path class="cls-2" d="M802.34,645a22.48,22.48,0,1,1-21.14-23.75h0A22.49,22.49,0,0,1,802.34,645Z" transform="translate(-29.52 -15.97)"/><path class="cls-2" d="M497.34,846.78a22.49,22.49,0,1,1-26.17,18.08,22.48,22.48,0,0,1,26.17-18.08Z" transform="translate(-29.52 -15.97)"/><path class="cls-2" d="M584.76,368.13a22.49,22.49,0,1,1-26.15,18.09h0A22.48,22.48,0,0,1,584.76,368.13Z" transform="translate(-29.52 -15.97)"/><path class="cls-2" d="M657.19,859.63c2.29,5.77,1.71,11.17-1.27,12.06s-7.27-3.07-9.56-8.82-1.71-11.17,1.28-12.06S654.9,853.86,657.19,859.63Z" transform="translate(-29.52 -15.97)"/><path class="cls-2" d="M461.76,405.61c2.29,5.76,1.72,11.16-1.28,12.05s-7.26-3.06-9.55-8.81-1.71-11.17,1.28-12.06S459.48,399.84,461.76,405.61Z" transform="translate(-29.52 -15.97)"/><path class="cls-2" d="M759.23,773.32c4.94,3.75,7.26,8.66,5.17,11s-7.8,1.16-12.75-2.58-7.26-8.65-5.16-11S754.28,769.59,759.23,773.32Z" transform="translate(-29.52 -15.97)"/><path class="cls-2" d="M356.47,486.77c4.94,3.74,7.26,8.64,5.17,11s-7.77,1.16-12.74-2.56-7.27-8.65-5.17-11S351.52,483,356.47,486.77Z" transform="translate(-29.52 -15.97)"/><path class="cls-2" d="M772,516.25c5.6-2.67,11.05-2.46,12.12.47s-2.56,7.45-8.16,10.12-11,2.45-12.12-.47S766.44,518.91,772,516.25Z" transform="translate(-29.52 -15.97)"/><path class="cls-2" d="M332.13,741.64c5.59-2.66,11-2.45,12.11.47s-2.56,7.45-8.16,10.12S325,754.68,324,751.76,326.52,744.33,332.13,741.64Z" transform="translate(-29.52 -15.97)"/><path class="cls-2" d="M679.1,420.22c3.4-5.19,8.14-7.83,10.59-5.89s1.68,7.7-1.72,12.88-8.14,7.82-10.59,5.9S675.7,425.4,679.1,420.22Z" transform="translate(-29.52 -15.97)"/><path class="cls-2" d="M420.15,841.3c3.4-5.19,8.14-7.83,10.59-5.9s1.68,7.7-1.71,12.89-8.15,7.83-10.6,5.9S416.75,846.45,420.15,841.3Z" transform="translate(-29.52 -15.97)"/><path class="cls-13" d="M347.4,257.57V241.45L364,226.2c32.86-30.5,48.33-47.25,48.55-65.73,0-12.46-6.66-23.41-24.92-23.41-12.28,0-22.77,6.23-29.86,11.6L350,130c10.09-8.17,25.34-14.4,43-14.4,30.93,0,46,19.55,46,42.35,0,24.48-17.61,44.25-41.89,66.8l-12.28,10.53v.43h57.36v21.91Z" transform="translate(-29.52 -15.97)"/><path class="cls-14" d="M520.76,257.57V222.12H457.6V204.94l56.93-87h31.14v84.22h18.05v20H545.67v35.45Zm0-55.42V164.1c0-8,.21-16.11.86-24.28h-.86c-4.3,8.81-8,15.9-12.28,23.63l-25.56,38.24-.22.43Z" transform="translate(-29.52 -15.97)"/><path class="cls-15" d="M570.17,266.16l52.41-155.74h18.47L588.64,266.16Z" transform="translate(-29.52 -15.97)"/><path class="cls-16" d="M746.1,117.93v17L687,257.57H659.12L718,140.28v-.43H652.23V117.93Z" transform="translate(-29.52 -15.97)"/><circle class="cls-17" cx="977.87" cy="186.58" r="60.28" transform="translate(124.96 730.14) rotate(-45)"/><path class="cls-18" d="M724.19,81.05c-1.5.87-3,1.69-4.47,2.48s-3,1.56-4.51,2.3a1.53,1.53,0,0,1-1.34-2.75h0c1.48-.72,3-1.47,4.42-2.25s2.93-1.58,4.3-2.4h0a1.54,1.54,0,0,1,2.15.29,1.52,1.52,0,0,1-.29,2.15,1.75,1.75,0,0,1-.29.18Z" transform="translate(-29.52 -15.97)"/><path class="cls-18" d="M706,90q-4.65,1.95-9.41,3.66a1.52,1.52,0,0,1-1-2.85q4.68-1.69,9.27-3.62A1.53,1.53,0,0,1,706,90Z" transform="translate(-29.52 -15.97)"/><path class="cls-18" d="M687,96.81q-4.85,1.45-9.77,2.61a1.51,1.51,0,0,1-.7-2.93q4.85-1.14,9.59-2.57a1.51,1.51,0,1,1,1,2.85Z" transform="translate(-29.52 -15.97)"/><path class="cls-18" d="M667.31,101.45c-3.32.56-6.67,1-10,1.38a1.49,1.49,0,1,1-.32-3h0q4.93-.51,9.84-1.37a1.5,1.5,0,0,1,.5,3Z" transform="translate(-29.52 -15.97)"/><path class="cls-18" d="M647.17,103.52c-3.38.11-6.76.08-10.14-.07a1.49,1.49,0,0,1-1.32-1.63,1.47,1.47,0,0,1,1.46-1.32c3.29.14,6.61.16,9.9,0a1.49,1.49,0,0,1,.11,3Z" transform="translate(-29.52 -15.97)"/><path class="cls-18" d="M626.92,102.57c-3.36-.44-6.7-1-10-1.74a1.47,1.47,0,0,1,.41-2.92l.23,0q4.83,1.07,9.75,1.69a1.48,1.48,0,1,1-.39,2.93h0Z" transform="translate(-29.52 -15.97)"/><path class="cls-18" d="M607.11,98.17c-3.22-1-6.38-2.19-9.52-3.4a1.46,1.46,0,1,1,1-2.72c3.11,1.19,6.23,2.31,9.38,3.33a1.47,1.47,0,0,1-.88,2.79Z" transform="translate(-29.52 -15.97)"/><path class="cls-18" d="M588.26,90.92l-9.17-4.2a1.45,1.45,0,0,1,1.21-2.62h.06l9.06,4.17h.05a1.45,1.45,0,0,1-1,2.73l-.23-.11Z" transform="translate(-29.52 -15.97)"/><path class="cls-18" d="M570.13,82.07q-4.44-2.43-8.72-5.08a1.44,1.44,0,0,1,1.51-2.45q4.23,2.63,8.6,5a1.44,1.44,0,1,1-1.38,2.53h0Z" transform="translate(-29.52 -15.97)"/><path class="cls-18" d="M553,71.35c-2.73-2-5.4-4.08-8-6.33a1.42,1.42,0,1,1,1.82-2.18l.06,0c2.47,2.17,5.07,4.22,7.75,6.15a1.43,1.43,0,0,1-1.52,2.43l-.16-.12Z" transform="translate(-29.52 -15.97)"/><path class="cls-18" d="M537.83,57.76A45.06,45.06,0,0,1,532,49.21a1.41,1.41,0,0,1,2.46-1.38.41.41,0,0,1,0,.09,42.43,42.43,0,0,0,5.46,8,1.42,1.42,0,0,1-2.16,1.83Z" transform="translate(-29.52 -15.97)"/><path class="cls-18" d="M528.93,39.18a24.27,24.27,0,0,1,.05-5.32q.18-1.32.48-2.61a26.23,26.23,0,0,1,.76-2.58,1.41,1.41,0,0,1,2.62.95v.05a21.44,21.44,0,0,0-.66,2.23,20.06,20.06,0,0,0-.41,7,1.41,1.41,0,1,1-2.8.29h0Z" transform="translate(-29.52 -15.97)"/><path class="cls-18" d="M537.71,20.9a32.64,32.64,0,0,1,9.89-3.38,1.39,1.39,0,1,1,.48,2.74h0a29.48,29.48,0,0,0-9,3.08,1.38,1.38,0,0,1-1.88-.51v0a1.39,1.39,0,0,1,.53-1.9h0Z" transform="translate(-29.52 -15.97)"/><path class="cls-18" d="M558.07,17.39a17.8,17.8,0,0,1,5.15,1.74,11.9,11.9,0,0,1,2.32,1.65,19.48,19.48,0,0,1,1.85,2,1.39,1.39,0,1,1-2.16,1.74h0a14.66,14.66,0,0,0-1.57-1.68,9,9,0,0,0-1.74-1.25,14.58,14.58,0,0,0-4.36-1.42,1.38,1.38,0,0,1,.38-2.74h.1Z" transform="translate(-29.52 -15.97)"/><path class="cls-18" d="M570.86,32.91A30.31,30.31,0,0,1,569,43.19a1.38,1.38,0,1,1-2.61-.87A27.84,27.84,0,0,0,568.11,33a1.37,1.37,0,1,1,2.74-.06h0Z" transform="translate(-29.52 -15.97)"/><path class="cls-18" d="M564.72,52.54A61,61,0,0,1,558.91,61a1.35,1.35,0,0,1-1.92.18,1.36,1.36,0,0,1-.18-1.92,59.51,59.51,0,0,0,5.55-8.07,1.35,1.35,0,0,1,1.84-.52h0a1.37,1.37,0,0,1,.51,1.86Z" transform="translate(-29.52 -15.97)"/><path class="cls-18" d="M551.87,68.4a85.35,85.35,0,0,1-7.94,6.39,1.34,1.34,0,1,1-1.69-2.09l.13-.09a83.14,83.14,0,0,0,7.68-6.19,1.34,1.34,0,0,1,1.82,2Z" transform="translate(-29.52 -15.97)"/><path class="cls-18" d="M535.36,80.22q-4.41,2.5-9,4.65a1.31,1.31,0,0,1-1.74-.65,1.33,1.33,0,0,1,.64-1.74q4.5-2.1,8.81-4.55a1.33,1.33,0,1,1,1.32,2.32Z" transform="translate(-29.52 -15.97)"/><path class="cls-18" d="M517,88.82c-1.56.62-3.17,1.16-4.76,1.7l-4.79,1.64a1.32,1.32,0,0,1-.87-2.5h.07l4.7-1.61c1.57-.53,3.14-1.06,4.68-1.67a1.32,1.32,0,1,1,1,2.46h0Z" transform="translate(-29.52 -15.97)"/><path class="cls-18" d="M497.74,94.85c-3.27.8-6.58,1.49-9.89,2.07a1.31,1.31,0,0,1-.46-2.57c3.27-.58,6.51-1.27,9.73-2a1.31,1.31,0,0,1,.63,2.55Z" transform="translate(-29.52 -15.97)"/><path class="cls-18" d="M477.86,98.41c-3.34.4-6.69.72-10.05.94a1.31,1.31,0,1,1-.18-2.61c3.31-.23,6.63-.54,9.91-.95a1.32,1.32,0,0,1,.32,2.62Z" transform="translate(-29.52 -15.97)"/><path class="cls-18" d="M457.73,99.8H447.65a1.29,1.29,0,0,1,0-2.57h10a1.31,1.31,0,1,1,0,2.62Z" transform="translate(-29.52 -15.97)"/><path class="cls-18" d="M437.59,99.49l-10-.65a1.28,1.28,0,0,1-.11-2.55l.26,0h0l10,.64h0a1.28,1.28,0,1,1,0,2.56h-.05Z" transform="translate(-29.52 -15.97)"/><path class="cls-18" d="M417.53,97.92l-10-1.12a1.26,1.26,0,0,1,.27-2.51h0l9.95,1.1h0a1.28,1.28,0,0,1,1.12,1.4,1.27,1.27,0,0,1-1.4,1.12Z" transform="translate(-29.52 -15.97)"/><path class="cls-18" d="M397.58,95.52l-9.94-1.37a1.25,1.25,0,1,1,.35-2.48h0L397.91,93h0a1.25,1.25,0,0,1-.22,2.5h-.11Z" transform="translate(-29.52 -15.97)"/><path class="cls-18" d="M377.7,92.71l-9.92-1.45a1.25,1.25,0,0,1-1-1.4,1.23,1.23,0,0,1,1.39-1h0l9.92,1.44a1.24,1.24,0,1,1-.36,2.46Z" transform="translate(-29.52 -15.97)"/><path class="cls-18" d="M357.87,89.85l-9.94-1.34h0a1.23,1.23,0,0,1,.17-2.45l.16,0,9.95,1.33a1.24,1.24,0,1,1-.33,2.45h0Z" transform="translate(-29.52 -15.97)"/><path class="cls-18" d="M338,87.3l-9.95-1h0a1.21,1.21,0,1,1,.25-2.41l10,1a1.22,1.22,0,0,1-.25,2.43H338Z" transform="translate(-29.52 -15.97)"/><path class="cls-18" d="M318.08,85.47l-10-.5h-.05a1.2,1.2,0,1,1,.13-2.4l10.05.51a1.21,1.21,0,1,1-.12,2.42h0Z" transform="translate(-29.52 -15.97)"/><path class="cls-18" d="M298.12,84.76l-9.95.21h-.05a1.19,1.19,0,0,1-1.22-1.17,1.2,1.2,0,0,1,1.17-1.22l10.08-.21a1.2,1.2,0,1,1,.24,2.39h-.27Z" transform="translate(-29.52 -15.97)"/><path class="cls-18" d="M278.2,85.62c-3.32.32-6.62.71-9.94,1.07h0a1.19,1.19,0,0,1-1.28-1,1.15,1.15,0,0,1,1-1.27h0c3.34-.38,6.66-.8,10-1.13a1.19,1.19,0,0,1,.24,2.36h-.06Z" transform="translate(-29.52 -15.97)"/><path class="cls-18" d="M258.4,88.16q-4.92.89-9.77,2a1.11,1.11,0,0,1-1.34-.83,1.1,1.1,0,0,1,.83-1.33q4.92-1.15,9.89-2a1.15,1.15,0,0,1,1.32.93A1.14,1.14,0,0,1,258.4,88.16Z" transform="translate(-29.52 -15.97)"/><path class="cls-18" d="M239,92.63q-4.78,1.41-9.43,3.16a1.06,1.06,0,1,1-.83-1.94l.08,0c3.14-1.21,6.33-2.29,9.59-3.27a1.09,1.09,0,0,1,.62,2.08Z" transform="translate(-29.52 -15.97)"/><path class="cls-18" d="M220.42,99.69c-3,1.43-5.9,3-8.72,4.69a1,1,0,0,1-1.38-.34h0a1,1,0,0,1,.33-1.37h0q4.32-2.62,8.87-4.83a1,1,0,0,1,1.32.59,1,1,0,0,1-.45,1.26Z" transform="translate(-29.52 -15.97)"/><polygon class="cls-18" points="698.89 30.19 702.21 56.83 718.83 43.13 698.89 30.19"/><path class="cls-3" d="M846.32,16,782.22,88a6.8,6.8,0,0,1-9.6.55l-.18-.16L702.52,21.31a2.73,2.73,0,0,1,1.86-4.69Z" transform="translate(-29.52 -15.97)"/><polygon class="cls-18" points="698.9 30.19 816.81 0 710.15 41.05 710.75 48.48 698.9 30.19"/><polygon class="cls-18" points="716.88 47.44 702.21 56.83 710.15 41.05 716.88 47.44"/><path class="cls-19" d="M667.86,679.35a10.83,10.83,0,0,0-11.37,5q-2.46,4.07-5.26,8c-43.37,61.37-128.59,76-190,32.66a136,136,0,0,1-30-29.06l-62.59,26.57c60.15,94.56,185.57,122.45,280.13,62.3a203.07,203.07,0,0,0,56.79-54.09,206.39,206.39,0,0,0,16-26.8,10.83,10.83,0,0,0-4.84-14.53,10.94,10.94,0,0,0-2.72-.93Z" transform="translate(-29.52 -15.97)"/><path class="cls-20" d="M457.87,722.15l-78.55,34.12a16.22,16.22,0,0,1-22.65-15.73l5.18-95.63a16.21,16.21,0,0,1,26.59-11.55l73.39,61.48a16.19,16.19,0,0,1-4,27.31Z" transform="translate(-29.52 -15.97)"/><path class="cls-21" d="M416.38,539.88A10.86,10.86,0,0,0,428.61,536,136.13,136.13,0,0,1,618,506.65l49.66-45.76A203,203,0,0,0,366.46,509a10.8,10.8,0,0,0,3.48,14.87,10.35,10.35,0,0,0,2.31,1.08C384.84,529.19,399.59,534.17,416.38,539.88Z" transform="translate(-29.52 -15.97)"/><path class="cls-22" d="M591.29,490.92l65.41-55.28a16.21,16.21,0,0,1,26.21,8.59l22.61,93A16.21,16.21,0,0,1,683.38,556l-88-37.76a16.2,16.2,0,0,1-4.11-27.27Z" transform="translate(-29.52 -15.97)"/><path class="cls-18" d="M812.71,843.12a1.4,1.4,0,0,1-1.16-.62c-1-1.52-2.13-3.07-3.24-4.55a1.41,1.41,0,1,1,2.27-1.68c1.13,1.53,2.24,3.07,3.3,4.64a1.42,1.42,0,0,1-.39,2,1.36,1.36,0,0,1-.78.24Z" transform="translate(-29.52 -15.97)"/><path class="cls-18" d="M694.72,1064h0c-3.69,0-7.45-.21-11.14-.53a1.41,1.41,0,0,1,.16-2.82h.09c3.61.31,7.28.49,10.91.52a1.41,1.41,0,1,1,0,2.82Zm17.89-1a1.41,1.41,0,0,1-.16-2.82c3.59-.43,7.23-1,10.79-1.72a1.41,1.41,0,1,1,.55,2.77c-3.63.73-7.36,1.32-11,1.76Zm28.23-6.36a1.41,1.41,0,0,1-.45-2.75c3.46-1.16,6.9-2.46,10.22-3.86a1.41,1.41,0,1,1,1.2,2.55l-.09,0c-3.4,1.44-6.91,2.77-10.44,3.95a1.31,1.31,0,0,1-.44.07Zm26.35-11.92a1.41,1.41,0,0,1-.71-2.63c3.13-1.85,6.23-3.8,9.21-5.87a1.41,1.41,0,0,1,1.65,2.29l0,0c-3.07,2.11-6.21,4.12-9.4,6a1.39,1.39,0,0,1-.71.2Zm23.33-17.06a1.42,1.42,0,0,1-.95-2.46c2.69-2.45,5.32-5,7.82-7.63a1.41,1.41,0,1,1,2.05,1.95c-2.55,2.69-5.24,5.31-8,7.78a1.41,1.41,0,0,1-.93.36Zm19.36-21.48a1.44,1.44,0,0,1-.82-.27,1.41,1.41,0,0,1-.32-2h0c2.14-2.94,4.2-6,6.14-9.07a1.41,1.41,0,1,1,2.44,1.42l-.05.07c-1.94,3.15-4,6.26-6.22,9.24a1.41,1.41,0,0,1-1.16.58Zm14.62-25a1.43,1.43,0,0,1-1.41-1.43,1.58,1.58,0,0,1,.13-.57c1.5-3.3,2.9-6.7,4.14-10.11a1.41,1.41,0,0,1,2.66,1h0c-1.27,3.47-2.68,6.94-4.23,10.31a1.39,1.39,0,0,1-1.27.83Zm9.26-27.41a1.17,1.17,0,0,1-.32,0,1.4,1.4,0,0,1-1.06-1.68h0c.8-3.54,1.48-7.16,2-10.74a1.41,1.41,0,1,1,2.8.31s0,.06,0,.09c-.53,3.68-1.23,7.37-2,11a1.41,1.41,0,0,1-1.36,1.11Zm3.46-28.73h0a1.41,1.41,0,0,1-1.39-1.43h0v-2.33c0-2.86-.09-5.75-.26-8.59a1.41,1.41,0,1,1,2.81-.17c.18,2.9.27,5.85.27,8.77v2.38a1.4,1.4,0,0,1-1.42,1.38Zm-2.5-28.84a1.41,1.41,0,0,1-1.39-1.15c-.68-3.55-1.51-7.13-2.45-10.65a1.41,1.41,0,1,1,2.72-.74c1,3.59,1.84,7.24,2.52,10.86a1.42,1.42,0,0,1-1.12,1.66h0l-.27,0Zm-8.28-27.72a1.42,1.42,0,0,1-1.31-.87c-1.39-3.37-2.92-6.7-4.56-9.93a1.41,1.41,0,1,1,2.47-1.36l0,.08c1.67,3.29,3.24,6.7,4.66,10.13a1.4,1.4,0,0,1-.78,1.84,1.31,1.31,0,0,1-.52.11Z" transform="translate(-29.52 -15.97)"/><path class="cls-18" d="M575.7,997a1.42,1.42,0,0,1-1.23-.67c-1-1.6-2-3.26-2.89-4.91A1.41,1.41,0,0,1,574,990c.92,1.63,1.84,3.25,2.84,4.82a1.41,1.41,0,0,1-.46,1.94,1.4,1.4,0,0,1-.77.21Z" transform="translate(-29.52 -15.97)"/><path class="cls-18" d="M565.15,976.23a1.39,1.39,0,0,1-1.3-.87c-1.37-3.37-2.64-6.83-3.75-10.31a1.41,1.41,0,1,1,2.68-.86c1.1,3.4,2.34,6.8,3.69,10.1a1.41,1.41,0,0,1-.78,1.84h0A1.24,1.24,0,0,1,565.15,976.23Zm-8.07-27.29a1.41,1.41,0,0,1-1.39-1.15c-.68-3.58-1.23-7.23-1.63-10.84a1.41,1.41,0,1,1,2.79-.39.17.17,0,0,1,0,.07c.39,3.54.93,7.12,1.6,10.63a1.4,1.4,0,0,1-1.12,1.65h0a1.09,1.09,0,0,1-.26.05Zm-2.46-28.37h0a1.41,1.41,0,0,1-1.39-1.43h0c0-3.64.25-7.33.61-10.95a1.4,1.4,0,0,1,1.52-1.28h0a1.42,1.42,0,0,1,1.27,1.54c-.33,3.55-.52,7.16-.57,10.73a1.41,1.41,0,0,1-1.41,1.41h-.06Zm3.3-28.27a1,1,0,0,1-.3,0,1.39,1.39,0,0,1-1.07-1.67h0c.78-3.55,1.72-7.12,2.77-10.61a1.42,1.42,0,1,1,2.71.82c-1,3.41-2,6.91-2.73,10.43a1.4,1.4,0,0,1-1.39,1.1Zm8.91-27a1.63,1.63,0,0,1-.57-.13,1.41,1.41,0,0,1-.71-1.84c1.48-3.33,3.11-6.64,4.84-9.82a1.41,1.41,0,0,1,2.45,1.34c-1.69,3.14-3.29,6.38-4.74,9.65a1.41,1.41,0,0,1-1.28.78ZM581,840.58a1.39,1.39,0,0,1-1.41-1.39,1.42,1.42,0,0,1,.26-.84c2.12-3,4.37-5.88,6.7-8.67a1.42,1.42,0,1,1,2.17,1.84h0c-2.28,2.74-4.5,5.6-6.57,8.5a1.41,1.41,0,0,1-1.15.55Zm18.77-21.38a1.42,1.42,0,0,1-1.43-1.4,1.44,1.44,0,0,1,.46-1.06c2.67-2.49,5.47-4.91,8.31-7.16a1.41,1.41,0,1,1,1.76,2.21c-2.79,2.23-5.52,4.58-8.14,7a1.42,1.42,0,0,1-1,.37ZM622.42,802A1.41,1.41,0,0,1,621,800.6a1.43,1.43,0,0,1,.68-1.21c3.11-1.89,6.34-3.68,9.58-5.33a1.42,1.42,0,0,1,1.92.56,1.41,1.41,0,0,1-.56,1.92l-.08,0c-3.19,1.61-6.35,3.38-9.39,5.23a1.54,1.54,0,0,1-.76.2Zm25.69-12.27a1.41,1.41,0,0,1-.48-2.74c2.75-1,5.56-1.9,8.37-2.72l2.09-.61a1.41,1.41,0,1,1,.87,2.68l-.13,0-2,.57c-2.76.81-5.53,1.7-8.21,2.67a1.46,1.46,0,0,1-.5.12Zm27.61-6.9a1.41,1.41,0,0,1-.2-2.81c3.61-.53,7.28-.92,10.91-1.17a1.41,1.41,0,1,1,.19,2.82h0c-3.56.25-7.16.61-10.69,1.14Zm39.28-.19h-.19c-3.54-.48-7.14-.83-10.7-1a1.41,1.41,0,0,1,.16-2.81c3.64.2,7.31.56,10.92,1.06a1.41,1.41,0,0,1-.19,2.8Z" transform="translate(-29.52 -15.97)"/><path class="cls-18" d="M737.74,787.72a1,1,0,0,1-.42-.06c-1.78-.55-3.58-1.07-5.37-1.55a1.41,1.41,0,1,1,.63-2.75l.1,0c1.84.48,3.68,1,5.47,1.57a1.41,1.41,0,0,1,.94,1.76,1.39,1.39,0,0,1-1.35,1Z" transform="translate(-29.52 -15.97)"/><path class="cls-3" d="M740.85,822.48a1.69,1.69,0,0,0-2,.18L723.17,836a89.77,89.77,0,0,0-28.84-4.11L683,814.75a1.69,1.69,0,0,0-1.84-.71l-24,6.17a1.69,1.69,0,0,0-1.27,1.5l-1.65,20.56a90,90,0,0,0-23.28,17.51l-20.26-4.13a1.66,1.66,0,0,0-1.79.8l-12.6,21.31a1.69,1.69,0,0,0,.17,2l13.38,15.72a89.82,89.82,0,0,0-4.1,28.85l-17.19,11.37a1.7,1.7,0,0,0-.71,1.84l6.14,24a1.71,1.71,0,0,0,1.51,1.27l20.56,1.65a89.77,89.77,0,0,0,17.51,23.28l-4.14,20.22a1.71,1.71,0,0,0,.8,1.8l21.37,12.56a1.67,1.67,0,0,0,1.95-.17l15.72-13.37a90.08,90.08,0,0,0,28.84,4.1L709.47,1030a1.69,1.69,0,0,0,1.84.71l24-6.13a1.69,1.69,0,0,0,1.26-1.51l1.66-20.56A90,90,0,0,0,761.49,985l20.22,4.13a1.68,1.68,0,0,0,1.8-.8l12.6-21.3a1.71,1.71,0,0,0-.18-2l-13.37-15.72a89.82,89.82,0,0,0,4.1-28.85l17.19-11.36a1.7,1.7,0,0,0,.7-1.84l-6.17-24a1.67,1.67,0,0,0-1.5-1.26l-20.56-1.66a90,90,0,0,0-17.51-23.28l4.13-20.25a1.7,1.7,0,0,0-.79-1.79Z" transform="translate(-29.52 -15.97)"/><path class="cls-2" d="M696.25,946.48a24.33,24.33,0,0,1-6.84-1,24,24,0,1,1,6.84,1Zm-.06-44a19.93,19.93,0,1,0,5.64.82,19.91,19.91,0,0,0-5.64-.82Z" transform="translate(-29.52 -15.97)"/><path class="cls-2" d="M696,984.71a61.86,61.86,0,0,1-15.42-121.77h0a62.24,62.24,0,0,1,11.74-1.84c.43,0,.86-.05,1.29-.06l.17,4.23a58,58,0,0,0-12.15,1.78l-1.45.39h0a57.18,57.18,0,0,0-31.77,22.94c-.7,1-1.37,2.07-2,3.16a57.63,57.63,0,1,0,90.13-11.66l3-3A61.88,61.88,0,0,1,696,984.72Z" transform="translate(-29.52 -15.97)"/><path class="cls-23" d="M541.67,623.56l173.67,32.08a5.17,5.17,0,0,1,4,6.1,5.25,5.25,0,0,1-1.08,2.27L703.42,681.9a5.17,5.17,0,0,0,4.29,8.47l173.7-10.3a5.17,5.17,0,0,0,2-9.81L728.66,595.08a5.18,5.18,0,0,0-7.38,5.3l3.58,27.42a5.15,5.15,0,0,1-5.85,5.79L543.42,613.38a5.18,5.18,0,0,0-5.83,4.28h0A5.17,5.17,0,0,0,541.67,623.56Z" transform="translate(-29.52 -15.97)"/><path class="cls-24" d="M825.13,675.35a.7.7,0,0,1-.52-.85.69.69,0,0,1,.65-.54l37.07-1.05a1.43,1.43,0,0,0,1.38-1.47,1.44,1.44,0,0,0-.79-1.23c-35.28-17-117.5-56.49-119-57.41a.69.69,0,0,1-.23-1,.72.72,0,0,1,1-.23h0c1.76,1.06,91.4,44.16,118.83,57.34a2.84,2.84,0,0,1-1.18,5.4l-37.06,1Z" transform="translate(-29.52 -15.97)"/><path class="cls-25" d="M532.1,614.57,436.56,436.78a5.17,5.17,0,0,1,2.1-7,5.27,5.27,0,0,1,2.45-.62h23.26a5.16,5.16,0,0,0,3.78-8.7l-118.92-127a5.17,5.17,0,0,0-8.79,4.76l41.05,167a5.17,5.17,0,0,0,8.81,2.29l18.81-20.25a5.19,5.19,0,0,1,8.19.79L523.15,619.75a5.17,5.17,0,0,0,7,1.75h0A5.17,5.17,0,0,0,532.1,614.57Z" transform="translate(-29.52 -15.97)"/><path class="cls-26" d="M384.64,442.94a.69.69,0,0,1-.7-.61c-.26-1.64-16.61-67.21-31.84-128a2.83,2.83,0,0,1,4.91-2.55l24.48,27.85a.71.71,0,0,1-1,1l-.05-.06L356,312.67a1.43,1.43,0,0,0-2.46,1.28c7.41,29.62,31.62,126.42,31.86,128.2a.71.71,0,0,1-.6.79h-.11Z" transform="translate(-29.52 -15.97)"/><path class="cls-27" d="M563.71,623.43a24,24,0,1,1-24-24,24,24,0,0,1,24,24Z" transform="translate(-29.52 -15.97)"/><path class="cls-18" d="M458,889.23a1.4,1.4,0,0,1-1.18-.61c-1-1.53-2.1-3.07-3.2-4.55a1.41,1.41,0,1,1,2.27-1.68h0c1.13,1.52,2.24,3.06,3.28,4.67a1.41,1.41,0,0,1-1.17,2.19Z" transform="translate(-29.52 -15.97)"/><path class="cls-18" d="M366.9,1059c-1.18,0-2.36,0-3.53-.07a1.41,1.41,0,0,1-1.37-1.45h0a1.38,1.38,0,0,1,1.38-1.37h.08a105.37,105.37,0,0,0,11.24-.24,1.41,1.41,0,1,1,.2,2.82h0C372.26,1058.87,369.56,1059,366.9,1059Zm26.16-3.2a1.41,1.41,0,0,1-.33-2.78c1.47-.36,2.95-.76,4.4-1.19,2.14-.61,4.3-1.32,6.35-2.06a1.41,1.41,0,1,1,1,2.63l-.05,0c-2.13.76-4.3,1.48-6.52,2.12-1.49.44-3,.85-4.52,1.23h-.34Zm27.71-11a1.41,1.41,0,0,1-1.41-1.41,1.44,1.44,0,0,1,.72-1.23,105.22,105.22,0,0,0,9.47-6,1.42,1.42,0,0,1,2,.33,1.4,1.4,0,0,1-.33,2,110.85,110.85,0,0,1-9.72,6.19,1.43,1.43,0,0,1-.7.15Zm23.68-18.08a1.41,1.41,0,0,1-1.41-1.41,1.45,1.45,0,0,1,.41-1,108.19,108.19,0,0,0,7.49-8.38,1.41,1.41,0,1,1,2.28,1.66.76.76,0,0,1-.08.11,109.73,109.73,0,0,1-7.68,8.59,1.4,1.4,0,0,1-1,.39Zm17.91-23.81a1.37,1.37,0,0,1-.68-.19,1.41,1.41,0,0,1-.55-1.91h0a109.61,109.61,0,0,0,5-10.09,1.41,1.41,0,1,1,2.59,1.11h0a110.17,110.17,0,0,1-5.08,10.35,1.43,1.43,0,0,1-1.24.7Zm10.85-27.77a1.86,1.86,0,0,1-.34,0,1.41,1.41,0,0,1-1-1.71h0a108.84,108.84,0,0,0,2.05-11,1.41,1.41,0,0,1,1.58-1.22,1.42,1.42,0,0,1,1.22,1.59h0a111.49,111.49,0,0,1-2.11,11.34,1.42,1.42,0,0,1-1.37,1Zm2.92-29.69a1.41,1.41,0,0,1-1.41-1.35,110.24,110.24,0,0,0-1-11.19,1.41,1.41,0,1,1,2.77-.5s0,.06,0,.09A113.28,113.28,0,0,1,477.54,944a1.42,1.42,0,0,1-1.36,1.46h-.05Zm-5.24-29.35a1.4,1.4,0,0,1-1.34-1,109.64,109.64,0,0,0-4-10.53,1.41,1.41,0,0,1,2.58-1.14h0a108.79,108.79,0,0,1,4.1,10.79,1.4,1.4,0,0,1-.9,1.77,1.55,1.55,0,0,1-.43.07Z" transform="translate(-29.52 -15.97)"/><path class="cls-18" d="M274,1007.14a1.43,1.43,0,0,1-1.23-.67c-1-1.62-2-3.28-2.87-4.91a1.41,1.41,0,1,1,2.3-1.64,1.56,1.56,0,0,1,.16.28c.89,1.62,1.84,3.24,2.8,4.82a1.4,1.4,0,0,1-.46,1.94,1.46,1.46,0,0,1-.77.21Z" transform="translate(-29.52 -15.97)"/><path class="cls-18" d="M263.8,985.63a1.4,1.4,0,0,1-1.33-1c-.62-1.77-1.23-3.59-1.73-5.42s-1-3.65-1.45-5.47A1.41,1.41,0,0,1,262,973l0,.14c.43,1.77.9,3.57,1.41,5.33s1.09,3.56,1.69,5.29a1.4,1.4,0,0,1-.86,1.79h0A1.44,1.44,0,0,1,263.8,985.63Zm-5.86-28.74a1.41,1.41,0,0,1-1.41-1.31c-.16-2.46-.24-4.91-.24-7.37,0-1.34,0-2.69.07-4a1.38,1.38,0,0,1,1.4-1.36h.06a1.41,1.41,0,0,1,1.36,1.46h0c-.05,1.3-.07,2.6-.07,3.91,0,2.38.08,4.78.23,7.14a1.41,1.41,0,0,1-1.31,1.51h0Zm2-29.26a1.43,1.43,0,0,1-.29,0,1.41,1.41,0,0,1-1.09-1.67,112.09,112.09,0,0,1,2.87-11,1.41,1.41,0,0,1,2.69.85,110,110,0,0,0-2.8,10.7A1.41,1.41,0,0,1,260,927.63ZM269.7,900a1.32,1.32,0,0,1-.62-.15,1.41,1.41,0,0,1-.61-1.9h0a111.17,111.17,0,0,1,5.67-9.82,1.41,1.41,0,1,1,2.38,1.53,109.4,109.4,0,0,0-5.52,9.57,1.41,1.41,0,0,1-1.3.77Zm16.72-24.09a1.41,1.41,0,0,1-1-2.36,110.6,110.6,0,0,1,8.08-8,1.41,1.41,0,0,1,1.87,2.11q-4.12,3.69-7.87,7.76a1.37,1.37,0,0,1-1,.47ZM309,857.09a1.41,1.41,0,0,1-.75-2.61,111.59,111.59,0,0,1,9.91-5.52,1.41,1.41,0,0,1,1.23,2.53,109.52,109.52,0,0,0-9.66,5.37A1.46,1.46,0,0,1,309,857.09ZM335.68,845a1.39,1.39,0,0,1-1.4-1.41,1.42,1.42,0,0,1,1-1.35l.71-.21a98.85,98.85,0,0,1,10.31-2.45,1.41,1.41,0,0,1,.53,2.77h0c-3.36.62-6.75,1.46-10.05,2.42l-.69.21a1.43,1.43,0,0,1-.41,0Zm40.18-4.23h-.12a107.24,107.24,0,0,0-11.05-.33,1.46,1.46,0,0,1-1.44-1.38,1.42,1.42,0,0,1,1.38-1.45h0A107.31,107.31,0,0,1,376,838a1.41,1.41,0,0,1,1.28,1.53,1.43,1.43,0,0,1-1.39,1.29Z" transform="translate(-29.52 -15.97)"/><path class="cls-18" d="M399.26,845.36a2,2,0,0,1-.42-.07c-1.75-.55-3.56-1.06-5.36-1.52A1.41,1.41,0,0,1,394,841l.14,0q2.76.71,5.52,1.55a1.42,1.42,0,0,1-.41,2.77Z" transform="translate(-29.52 -15.97)"/><path class="cls-3" d="M401.72,871.9a1.33,1.33,0,0,0-1.52.13l-12.15,10.35a69.81,69.81,0,0,0-22.32-3.2l-8.81-13.28a1.33,1.33,0,0,0-1.43-.54L337,870.12a1.31,1.31,0,0,0-1,1.16l-1.26,15.88a69.66,69.66,0,0,0-18,13.54l-15.66-3.18a1.31,1.31,0,0,0-1.39.61L290,914.62a1.3,1.3,0,0,0,.14,1.51l10.36,12.15a69.33,69.33,0,0,0-3.18,22.29L284,959.36a1.32,1.32,0,0,0-.55,1.43l4.77,18.53a1.31,1.31,0,0,0,1.17,1l15.89,1.28a69.62,69.62,0,0,0,13.53,18l-3.19,15.63a1.31,1.31,0,0,0,.62,1.39l16.46,9.75a1.3,1.3,0,0,0,1.51-.14l12.15-10.34a69.34,69.34,0,0,0,22.3,3.17l8.79,13.31a1.31,1.31,0,0,0,1.42.55l18.57-4.77a1.32,1.32,0,0,0,1-1.17l1.28-15.89a69.55,69.55,0,0,0,18-13.51l15.64,3.2a1.32,1.32,0,0,0,1.39-.62l9.74-16.48a1.31,1.31,0,0,0-.13-1.51L434,970a69.62,69.62,0,0,0,3.17-22.3l13.31-8.79a1.32,1.32,0,0,0,.54-1.42L446.22,919a1.32,1.32,0,0,0-1.16-1l-15.9-1.28a69.44,69.44,0,0,0-13.54-18l3.2-15.64a1.31,1.31,0,0,0-.61-1.39Z" transform="translate(-29.52 -15.97)"/><path class="cls-2" d="M367.21,968.25a19.12,19.12,0,0,1-9.17-35.9h0a19.11,19.11,0,1,1,9.17,35.9Zm0-34a14.85,14.85,0,0,0-7.11,1.84h0a14.87,14.87,0,1,0,11.33-1.23,15.11,15.11,0,0,0-4.22-.61Zm-8.12,0" transform="translate(-29.52 -15.97)"/><path class="cls-2" d="M366.93,997.81A48.31,48.31,0,0,1,355,902.71h0l.32-.08a48.33,48.33,0,0,1,8.62-1.35l.62,0,.61,0,.17,4.24A44.07,44.07,0,1,0,398,918.16l3-3a48.34,48.34,0,0,1-34.05,82.66Z" transform="translate(-29.52 -15.97)"/><path class="cls-28" d="M866.41,682s-36.32,46.5,5.12,93.79l15.57-1.45s-30-48.15-16.63-86.53l22.1,1.61,12.2-8Z" transform="translate(-29.52 -15.97)"/><path class="cls-29" d="M886.3,909.63s29.46,64.13,44.86,90.69c0,0,3.07,16.72,0,22l-2.61,1.16,12.2-.37s1.08-22.48.23-23.73a3.06,3.06,0,0,0-2.53-1.18s-5.23-41.43-20.38-50.27l-14.68-50.55Z" transform="translate(-29.52 -15.97)"/><path class="cls-30" d="M923.34,1026.6c0,.3,9.52.16,14.73.07a4.11,4.11,0,0,0,3.95-3.25l3.92-20.57a3.68,3.68,0,0,0-2.81-4.29l-2.19-.5s-3.11,4.3-2.13,8.3,1.84,14.46-.62,15.67-9.61,1.43-9.61,1.43S923.5,1024,923.34,1026.6Z" transform="translate(-29.52 -15.97)"/><path class="cls-31" d="M858.41,1027a1.08,1.08,0,0,0,.54,2c8.67-.09,28.11-.36,29.84-1.08,2.23-.93-.82-8.94-4-11.66L867.1,1022Z" transform="translate(-29.52 -15.97)"/><path class="cls-32" d="M852.92,905.54s19,92,24.39,109.93l-12.72,8s6.38-1.09,11.1-1.42,9.08-5.78,9.08-5.78l-1.52-2.45s-4.77-91.49-3.61-101.88Z" transform="translate(-29.52 -15.97)"/><path class="cls-33" d="M805.72,691s-2.63,47.87,40.94,72.31l-10.49,23.93s-39.44-23.86-38-88.93a7.58,7.58,0,0,0-1.84-5.09l-8.4-9.71a15.07,15.07,0,0,1-3.2-13.5l1.11-4.41a2.28,2.28,0,0,1,2.76-1.67,2.12,2.12,0,0,1,.6.25l.88.51a15.33,15.33,0,0,1,6.32,7l4.11,9.2a8.84,8.84,0,0,0,8.84,5.2l2.54-.22Z" transform="translate(-29.52 -15.97)"/><path class="cls-34" d="M845.14,759.69c7.3,2,32,8.52,47.4,8.25l-9.46,53.39.75,8.71L853,829.91s-8.68-20.18-15.54-30.23c-2-2.91-.5-6.37.61-9.71l-1.54-1a4.22,4.22,0,0,1-1.66-4.8l7.52-23A2.28,2.28,0,0,1,845.14,759.69Z" transform="translate(-29.52 -15.97)"/><path class="cls-35" d="M850.5,825.37l.61,5.27s-8.72,26.12,4.36,87.15c0,0,28.33,8,51.62-11.18,0,0-6.57-57.57-8.36-60.26-8.94-13.35-14.89-16.26-14.89-16.26l-.27-5.76S858.66,828.8,850.5,825.37Z" transform="translate(-29.52 -15.97)"/><path class="cls-36" d="M862.58,764c-.11-.15,6.44-19.78,6.44-19.78l9.38.85,3.68,22.27S867.4,770.31,862.58,764Z" transform="translate(-29.52 -15.97)"/><path class="cls-37" d="M876.15,713.25c-.61.39-20,8.42-15.87,28.58a3.77,3.77,0,0,0,2.15,2.7,33,33,0,0,0,16.33,2.71c10.18-1,16.84-18.8,16.57-23.94S882.36,709.39,876.15,713.25Z" transform="translate(-29.52 -15.97)"/><path class="cls-38" d="M882.07,705.41c-.51.07-11.22,3.8-5.92,11.56s7.31,12.34,4.8,15.75c-2.29,3.11-7.36,1.34-6.92,7.8a3.59,3.59,0,0,1-1.55,3.27c-4.77,3.24-16.44,13.2-4.9,27.4a3.62,3.62,0,0,1,.4,4c-3.38,6.07-10.49,23.85,15.24,33.71,25.43,9.74,34.62-6.87,37.18-13.5a3.54,3.54,0,0,1,3.51-2.24c2.79.13,6.75-.34,6.57-4.07-.11-2.27-1.53-4.3-3.2-5.93a3.55,3.55,0,0,1,0-5,4,4,0,0,1,.73-.57,6.92,6.92,0,0,0,3.43-4.29c1.54-5.72-1.54-22.79-17.9-25.69a3.83,3.83,0,0,1-3-2.89v-.06a3.54,3.54,0,0,1,1.31-3.48c2.62-1.91,6-5.77,3.25-12a13.4,13.4,0,0,0-10.49-7.93,3.56,3.56,0,0,1-3-4.09l0-.16C902.82,711.57,901.81,702.82,882.07,705.41Z" transform="translate(-29.52 -15.97)"/><path class="cls-18" d="M105.37,674.38h-.28c-1.84-.38-3.74-.82-5.56-1.3a1.41,1.41,0,1,1,.64-2.74h.07c1.78.46,3.61.89,5.42,1.27a1.41,1.41,0,0,1-.29,2.79Z" transform="translate(-29.52 -15.97)"/><path class="cls-39" d="M173.51,990.17s-1.27,7.22-1.9,14.37a4.92,4.92,0,0,0,4.46,5.33h.25c9.52.4,29.89,1.17,37.2.84a1.61,1.61,0,0,0,1.53-1.67,1.52,1.52,0,0,0-.12-.52h0a3.6,3.6,0,0,0-1.84-1.94l-33.64-15.46Z" transform="translate(-29.52 -15.97)"/><path class="cls-40" d="M172.46,986l1,8.65s5.9,2.74,9.92-.35L181,984.62Z" transform="translate(-29.52 -15.97)"/><path class="cls-41" d="M173.24,823.5c-.44,2.25-2.38,112.59,9.41,162a1.66,1.66,0,0,1-1,2,29.3,29.3,0,0,1-9.61,2,2.89,2.89,0,0,1-2.86-2.08c-3.38-11.47-19.53-69-21.63-123.86-2.36-61.37,0-2.08,0-2.08L149,823.47Z" transform="translate(-29.52 -15.97)"/><path class="cls-42" d="M134.81,993.93s-2,3.65-4,13.34a3,3,0,0,0,2.34,3.55l.31,0c3.14.31,8,.71,11.86.68a3,3,0,0,0,3-3,1.88,1.88,0,0,0,0-.34c-.43-3.54-1.76-9.34-5.89-13.87Z" transform="translate(-29.52 -15.97)"/><path class="cls-43" d="M133,982.82l2.39,13.07s2.37,1.77,7.05.49l-1.14-14.06Z" transform="translate(-29.52 -15.97)"/><path class="cls-44" d="M126.55,826.88c-9.64,58.21,2.1,143.89,6,160.65a2.62,2.62,0,0,0,2.11,2,17.49,17.49,0,0,0,7.55-.3A2.41,2.41,0,0,0,144,987c.53-13.56-.43-96.77,8.56-129.67a7.45,7.45,0,0,1,2.88-4.12l17.44-12.4,1.34-20Z" transform="translate(-29.52 -15.97)"/><path class="cls-45" d="M188,716.58c-28.91-.48-60.8,7.59-60.8,7.59-8.6,50.27-1.51,108.27-1.51,108.27,22.38,5.86,47.62-3.59,47.62-3.59,3.72-21,21.08-80.16,21.08-80.16a95.13,95.13,0,0,0,35.34-11.22c-7.31-8.47-10.76-19.25-12.28-25.62C207.28,715,196.94,716.72,188,716.58Z" transform="translate(-29.52 -15.97)"/><path class="cls-46" d="M273.4,674a5.51,5.51,0,0,0-6.43-1.81c-4.25,18-26.56,32.52-49.47,39.66,1.49,6.37,4.94,17.19,12.27,25.62C267.78,716.09,273.4,674,273.4,674Z" transform="translate(-29.52 -15.97)"/><path class="cls-47" d="M272.72,674.87c.29,1-3.14,2.38-5.17-1.48-.07-1.84-1.23-9.82-.09-11.29,5.89-8,17.32-18.11,17.32-18.11a2.73,2.73,0,0,1,.33,3.78l-5.52,5.77c1.16,2.1,2.57,3.86,3.24,6.4a7.82,7.82,0,0,1-.78,5.72c-1,1.75-2.3,4-3.55,5.81A7.69,7.69,0,0,1,272.72,674.87Z" transform="translate(-29.52 -15.97)"/><path class="cls-48" d="M277.15,657.29l-5,4.29-1.59,4.26,4.5,5s1.52-8.46,2.64-10.29S278.2,657.82,277.15,657.29Z" transform="translate(-29.52 -15.97)"/><path class="cls-49" d="M138.31,752.14l-11.09-28s-27,18.35-31.44,41.61A64,64,0,0,1,119.25,772C121.24,761.08,138.31,752.14,138.31,752.14Z" transform="translate(-29.52 -15.97)"/><path class="cls-50" d="M161.9,778.52s-30.31,17.14-40.55,2.51a11.51,11.51,0,0,1-2.1-8.94,64.16,64.16,0,0,0-23.47-6.29,32.08,32.08,0,0,0,3.48,22c17.92,32.78,66.65-1.81,66.65-1.81Z" transform="translate(-29.52 -15.97)"/><path class="cls-51" d="M158.26,800.17l16.57-57.78a1.68,1.68,0,0,1,1.42-1.23c3-.35,11.66-1.33,21.71-2.18,12.09-1,26.12-1.84,34.5-1.14a1.68,1.68,0,0,1,1.56,1.8,1.62,1.62,0,0,1-.18.65c-4.77,9.65-24.38,48.88-34.2,61.73a1.69,1.69,0,0,1-1.36.67l-38.39-.36a1.69,1.69,0,0,1-1.7-1.68A1.59,1.59,0,0,1,158.26,800.17Z" transform="translate(-29.52 -15.97)"/><path class="cls-52" d="M199.66,734l12-2a.86.86,0,0,1,1,.71.71.71,0,0,1,0,.41l-1.19,3.6a.85.85,0,0,1-.7.61l-11.54,1.55a.87.87,0,0,1-1-.74.88.88,0,0,1,0-.32l.73-3.13A.85.85,0,0,1,199.66,734Z" transform="translate(-29.52 -15.97)"/><path class="cls-53" d="M190.67,744.16l1-5.15a1.19,1.19,0,0,1,1.05-1l24.23-2.45a1.18,1.18,0,0,1,1.3,1.06,1.08,1.08,0,0,1,0,.4l-1.54,6.42a1.17,1.17,0,0,1-1.09.9l-23.67,1.19a1.21,1.21,0,0,1-1.25-1.2A1.48,1.48,0,0,1,190.67,744.16Z" transform="translate(-29.52 -15.97)"/><path class="cls-54" d="M162.25,786.21s-2.3-9.48-1.37-12.84,2.73-7.68,8.74-6.72a88.15,88.15,0,0,1,13.08,3.48s-.36,4.39-4.91,3l2.83,2.19s-.41,3.5-4.26,1.63l2.63,2.9a3.06,3.06,0,0,1-4.49,1C171.66,779,170.3,787.35,162.25,786.21Z" transform="translate(-29.52 -15.97)"/><path class="cls-55" d="M158.74,693.11l-9.2,26.6a.94.94,0,0,0,.43,1.15c2.51,1.39,11.54,5.4,22.43-1.51a4.53,4.53,0,0,0,2.08-3.22l3-23Z" transform="translate(-29.52 -15.97)"/><path class="cls-56" d="M178.75,668.48s10.1,19,8.8,26.69-13.8,7.13-24.73.89l-7.64-20.53Z" transform="translate(-29.52 -15.97)"/><path class="cls-57" d="M163.33,686a.78.78,0,0,0,.41-1,.54.54,0,0,0-.07-.13,20.31,20.31,0,0,1-2.81-6s-1.84-1.17,4.62-2.71,16-3.93,18.05-9.41-3.2-18.78-11.44-8.07a.78.78,0,0,1-1.11.11.63.63,0,0,1-.12-.11c-1.35-1.76-4.91-5.41-9.82-3.2-4.61,2.08-5.13,5.46-5.07,7.17a.79.79,0,0,1-.75.81l-.17,0c-2.34-.44-7.94-.83-10.56,4.91-2.15,4.74-.75,7.42.52,8.73a.78.78,0,0,1,0,1.1.73.73,0,0,1-.33.19c-1.53.48-3.52,1.78-3.32,5.37.28,5,5.83,4.53,7.41,4.29a.79.79,0,0,1,.7.25c1.36,1.5,7.47,7.87,14.08,8.64a.79.79,0,0,0,.87-.69.82.82,0,0,0,0-.35l-2.9-8.3a.79.79,0,0,1,.43-1Z" transform="translate(-29.52 -15.97)"/><path class="cls-58" d="M164.45,687.16s-7.19-4.91-7.72-.78,6.48,6,10,4.47Z" transform="translate(-29.52 -15.97)"/></g></svg>