<svg id="a109d2fb-cf74-48da-93ee-30ab4b6fa2fe" data-name="Layer 1" xmlns="http://www.w3.org/2000/svg" viewBox="0 0 170.88 187.17"><title>campaign-submission</title><path d="M4.68.78A8.23,8.23,0,0,0,1.2,3.94C.33,5.35,0,34.07,0,94.66c0,87.35,0,88.55,2.18,90.5,3.15,2.83,8.59,2.61,11.09-.43,1.85-2.4,2-5.33,2-46.34,0-39.6.22-43.84,1.74-44.49,1-.44,17.3-.66,36.23-.66S88.48,93,89.46,92.7c3.81-1.52,4.24-5.66,3.92-44.27-.33-36.12-.44-37.86-2.61-40.69a30,30,0,0,0-5.23-5.22C82.72.35,81.08.24,44.86,0,24-.09,6,.24,4.68.78Z" transform="translate(0 0.01)" fill="#e5bdff"/><path d="M108.78,64.63c0,46.23,1.42,44.16-32.3,44.7l-22,.3v9.25c0,10.66,2.07,16.1,7.4,19.14,3,1.85,7.72,2,56.13,2,29,0,52.87-.33,52.87-.65s-3.38-12.51-7.51-27l-7.5-26.43,7.45-26.31c4.13-14.36,7.51-26.65,7.51-27.3s-11-1.09-31-1.09h-31Z" transform="translate(0 0.01)" fill="#e5bdff"/></svg>