<svg id="bd538109-9866-42d6-a82e-c28b465ca255" data-name="Layer 1" xmlns="http://www.w3.org/2000/svg" viewBox="0 0 448 435.46"><title>donation</title><path d="M416,304.67a8,8,0,0,1-5.66-2.34l-.81-.81a70.11,70.11,0,0,0-99.06,0l-.81.81a8,8,0,0,1-5.66,2.34H224a16,16,0,0,0-16,16,16.19,16.19,0,0,0,.49,3.92h0a16,16,0,0,0,15.51,12h80a8,8,0,0,1,0,16H224a32,32,0,0,1-29.57-19.76l-76.77-25.6a16.81,16.81,0,0,0-5.26-.87A16.49,16.49,0,0,0,96,322.92v.53a16.45,16.45,0,0,0,7.62,14l138.86,88.37a62.23,62.23,0,0,0,49.07,7.65L414,401.26a8,8,0,0,1,2-.26h32V304.67Z" transform="translate(0 -0.04)" fill="#e5bdff"/><path d="M121.11,174.57l.69.16a60.63,60.63,0,0,0,39.18-5.1L174.34,163a23,23,0,0,1,4.78-2.4h.06l6.16-3.07a8,8,0,0,1,4.54-.79l65,7.93A17.09,17.09,0,0,0,260.52,131L183.24,114.4a8,8,0,1,1,2.57-15.79l.13,0a2.39,2.39,0,0,1,.45.09h.22l16.8,3.62-5.1-12.93a8,8,0,0,1,14.88-5.87l9,22.85,11.45,2.46,1.69-7.82A8,8,0,1,1,251,104.35h0l-1.69,7.82,14.58,3.14a33,33,0,0,1,8.62,3.14l1.53-7.09a28.12,28.12,0,0,0-6.23-24.26L238.17,53A27.93,27.93,0,0,0,217,43.36h-.54L93.64,45.71a8.4,8.4,0,0,1-3.72-.84L0,0V102l59.25,26.77A8,8,0,0,1,62.16,131l13.21,16.2a78.75,78.75,0,0,0,44.28,27.11c.48.11,1,.21,1.46.3Z" transform="translate(0 -0.04)" fill="#e5bdff"/><path d="M252.91,180.5l-25.21-3.07a20,20,0,0,0,2.16,25.72L282,255.29l52.14-52.14a20,20,0,1,0-28.28-28.29h0L287.65,193a8,8,0,0,1-11.31,0h0L263.41,180.1a33.34,33.34,0,0,1-10.5.38Z" transform="translate(0 -0.04)" fill="#e5bdff"/><path d="M190.33,172.87l-7.68,3.83a8.85,8.85,0,0,0-2.83,4.15,10.11,10.11,0,0,0,1.06,8.74,9.71,9.71,0,0,0,9.78,4.31l17.39-3c0-.64-.05-1.29-.05-1.94a36.1,36.1,0,0,1,2.69-13.65Z" transform="translate(0 -0.04)" fill="#e5bdff"/></svg>