<svg id="a1713d87-a598-4e30-88de-0d1185ca2ec0" data-name="Capa 1" xmlns="http://www.w3.org/2000/svg" viewBox="0 0 477.87 477.87"><title>education</title><path d="M460.8,119.47H375.47V17.07A17.07,17.07,0,0,0,358.4,0H17.07A17.07,17.07,0,0,0,0,17.07V409.6a68.27,68.27,0,0,0,68.27,68.27H409.6a68.28,68.28,0,0,0,68.27-68.27V136.53A17.06,17.06,0,0,0,460.8,119.47ZM136.53,85.33h102.4a17.07,17.07,0,0,1,0,34.14H136.53a17.07,17.07,0,0,1,0-34.14ZM290.13,409.6H85.33a17.07,17.07,0,0,1,0-34.13h204.8a17.07,17.07,0,1,1,0,34.13Zm0-68.27H85.33a17.07,17.07,0,0,1,0-34.13h204.8a17.07,17.07,0,1,1,0,34.13Zm0-68.26H85.33a17.07,17.07,0,0,1,0-34.14h204.8a17.07,17.07,0,0,1,0,34.14Zm0-68.27H85.33a17.07,17.07,0,0,1,0-34.13h204.8a17.07,17.07,0,1,1,0,34.13Zm153.6,204.8a34.13,34.13,0,0,1-68.26,0v-256h68.26v256Z" fill="#e5bdff"/></svg>