<svg id="e19a4713-1b22-4633-b636-ef166cc73d1e" data-name="Capa 1" xmlns="http://www.w3.org/2000/svg" viewBox="0 0 246.02 279"><title>shop-and-donate</title><path d="M262.42,270.34l-16-197.44A7.51,7.51,0,0,0,239,66H196.16V56.51A56.29,56.29,0,0,0,140,0h-1C107.84,0,82.16,25.35,82.16,56.51V66H40a7.51,7.51,0,0,0-7.48,6.9l-16,198A7.52,7.52,0,0,0,24,279H255a7.5,7.5,0,0,0,7.41-8.66ZM97.16,56.51C97.16,33.62,116.11,15,139,15h1a41.27,41.27,0,0,1,41.17,41.51V66h-84Z" transform="translate(-16.49)" fill="#e5bdff"/></svg>