<svg id="ad504daa-a45a-41dd-971c-3257b9a39318" data-name="Capa 1" xmlns="http://www.w3.org/2000/svg" viewBox="0 0 479.12 479.04"><title>universal-donation</title><path d="M462.74,390.24a51.09,51.09,0,0,0-34.91-13.57,52.56,52.56,0,0,0-7,.7l-42.5-70.82a84.39,84.39,0,0,0-12.2-140.92l37.63-62.72a52.73,52.73,0,0,0,7,.7A51.58,51.58,0,1,0,373.4,87.19l-41,68.26c-2.37-.13-4.63-.64-7-.64a84.72,84.72,0,0,0-48.61,15.36L136.87,76.9a66.2,66.2,0,0,0,.82-7.43,68.85,68.85,0,1,0-13.29,40.09l128.71,85.81a84.45,84.45,0,0,0-11.31,27.7H134.55a51.21,51.21,0,1,0,0,34.13H241.8a84.25,84.25,0,0,0,11.3,27.7L124.4,370.71a68,68,0,1,0,13.29,40.09,66.13,66.13,0,0,0-.75-7.42l140-93.27a81.94,81.94,0,0,0,71.05,11.95l42.66,71a51,51,0,1,0,72.14-2.81Z" transform="translate(0 -0.04)" fill="#e5bdff"/></svg>