<svg height="512" viewBox="0 0 64 64" width="512" xmlns="http://www.w3.org/2000/svg" fill="white"><g id="Campaign_lunch" data-name="Campaign lunch"><path d="m52.719 6.755a1 1 0 0 1 -.5-1.866l2.6-1.5a1 1 0 1 1 1 1.732l-2.6 1.5a.992.992 0 0 1 -.5.134z"/><path d="m40 22h.037l-1.104-4.123-1.748.468-.191.051.964 3.604z"/><path d="m39.203 11.167 1.251 4.659 7.765 1.944-3.261-12.172z"/><path d="m56 43.281v-11.281h-12a1 1 0 0 1 -.9-.553l-2.1-4.211v19.48l2.68.718a3.964 3.964 0 0 1 2.259 1.629l9.751-5.629c.101-.058.21-.104.31-.153z"/><path d="m37.378 12.082-5.8 1.553a2 2 0 0 0 1.04 3.865l5.795-1.555z"/><path d="m59.414 45.9a2.034 2.034 0 0 0 -2.726-.732l-10.072 5.814a3.982 3.982 0 0 1 -3.965 4.318 4.043 4.043 0 0 1 -1.042-.138l-11.925-3.196a1 1 0 0 1 .517-1.932l11.926 3.2a2 2 0 1 0 1.035-3.863l-14.92-4a5 5 0 0 0 -2.507-.021l-5.735 1.431v10.6l2.18 1.09a5.036 5.036 0 0 0 2.237.529h14.976a5 5 0 0 0 2.5-.67l16.8-9.7a2.008 2.008 0 0 0 .721-2.73z"/><path d="m48.503 4.037h1v14h-1z" transform="matrix(.966 -.259 .259 .966 -1.187 13.058)"/><path d="m12 44h6v16h-6z"/><path d="m20.618 30h14.764l3-6h-14.764z"/><path d="m4 46h6v12h-6z"/><path d="m41.618 24 3 6h14.764l-3-6z"/><path d="m36 32h-12v11.719l1.25-.312a7 7 0 0 1 3.51.03l10.24 2.743v-18.944l-2.1 4.211a1 1 0 0 1 -.9.553z"/><path d="m54.315 10.614a1.015 1.015 0 0 0 .26-.034l2.9-.777a1 1 0 1 0 -.518-1.931l-2.9.776a1 1 0 0 0 .257 1.966z"/><path d="m54.861 12.755a1 1 0 0 0 0 2h3a1 1 0 0 0 0-2z"/></g></svg>