<svg id="Layer_1" data-name="Layer 1" xmlns="http://www.w3.org/2000/svg" viewBox="0 0 687.17 947.3" fill="white"><title>logo-pbs5</title><path d="M190.52,551.71q0-209.13-.08-418.27c0-17.5,5.11-32.32,18.54-44,10.94-9.51,24.17-11.37,37.81-11.35,45.44.08,90.87.58,136.31.6,146.1.09,292.2.77,438.29-.49,35-.3,56.28,26.2,56.22,56.71q-.9,417.26-.29,834.51c0,20.23-6.29,36.91-23.59,48.52-7.81,5.25-16.35,7.46-25.74,7.45q-293.88-.08-587.76-.09c-27.41,0-48.45-20.81-49.64-48.26-.13-3-.06-6.06-.06-9.1Q190.53,759.84,190.52,551.71ZM574.43,298.3h-.24c0-34.35.16-68.71-.08-103.07-.1-15-6.14-21.89-18.65-22.83-16-1.21-22.54,3.66-25.68,18.77A98.75,98.75,0,0,0,528,211.25q.07,94.47,0,189c0,3-.13,6.06,0,9.09.33,8.23-3,13.75-11.45,15.21s-15.4-1-18.94-9.53a33.06,33.06,0,0,1-2-7.78c-4.2-28.64-8.28-57.3-12.47-85.95-3.9-26.65-7.78-53.3-11.89-79.92-2.3-14.94-10.06-22.43-22.57-22.51-14.16-.11-20.82,6-23.19,22.4a64.42,64.42,0,0,0-.31,19.1c10.31,63.74,14.64,128.29,26.46,191.84,3.57,19.14,5.16,38.69,7,58.12,1.71,17.82-9.42,26.73-26.55,21.52-13.18-4-22.94-12.74-29.58-24.58-7.08-12.61-13.51-25.59-20.12-38.47-5.83-11.35-9.91-23.6-18-33.75-8.78-10.95-24.67-17.21-33.63-12.88-11.07,5.34-15.48,20-10.5,35.47,1.85,5.77,4,11.43,6.15,17.11,18.6,50.21,43.07,97.94,62.43,147.8,12.19,31.37,26.31,61.57,50,85.76,22,22.45,30.87,48.88,30.57,79.56-.38,38.73-.34,77.47-.19,116.2.05,14.32,5.56,20.08,19.78,21.75,9,1.06,18.17,1.25,27.09,2.81,8.28,1.44,9.85-2.21,9.83-9.3-.16-51.2,0-102.4-.19-153.6a49.29,49.29,0,0,0-13.34-34c-6.61-7.24-12.35-15.13-16.14-24.27q-19.55-47.11-39-94.25a25.71,25.71,0,0,1-1.45-16.8c2.74-10.23,11.28-13.53,20.32-8.07,4.29,2.59,6.44,6.71,8.63,10.92,6,11.65,11.95,23.38,18.4,34.81,2.35,4.16,5.13,9.84,11.45,7.59,5.88-2.1,5.22-8,5.28-13a75.41,75.41,0,0,0-.38-10.09c-2.95-24.4-6-48.77-9-73.17-1.7-14-3.63-28.05-4.67-42.13-.56-7.52,2-14.28,10.87-15.71,8.34-1.36,14.32,1.64,17.48,10,1.91,5,3.84,10,4.62,15.39,2.94,20.32,5.94,40.64,9.16,60.92.77,4.8-1.53,13.32,5.7,12.68,6.24-.55,4.1-8.85,4.13-13.9.2-29.64,0-59.28.18-88.92.07-12.64,4.65-18.2,14-18,9.84.2,12.11,4,12.84,17.3,1.71,31.29,1.37,62.59,1.58,93.9,0,3.32-1.87,9,3,9.28,5.23.3,4.81-5.55,5.15-9.39,1.44-16.43,2.64-32.87,4-49.3,1.09-13.06,1.82-26.18,3.67-39.13,1-7,5.88-11.44,13.68-10.39,7.11,1,13.63,3.51,13.63,12.08,0,10.08.4,20.45-1.72,30.17-4.5,20.57-3.19,41.45-5.08,62.13-.32,3.56-.46,8.1,4.45,8.93s7.28-3.11,8.39-7.08c1.44-5.17,2.12-10.55,3.18-15.82,2.52-12.54,4.88-25.12,7.7-37.59,1.39-6.14,5.46-10.58,12.11-10,7.13.62,11.55,5.23,12.4,12.49a30.5,30.5,0,0,1-.41,9C663,582.44,659.46,623,661.25,663.83c1.15,26.3-4.33,50.85-17.15,73.75-3.92,7-5.25,14.3-5.22,22.26.16,50.86.08,101.72.09,152.58,0,2.69.07,5.39.31,8.07.2,2.23,1.47,3.42,3.83,3.92,18.95,4,38-10.63,38.07-29.76.21-40.42,1.07-80.86-.07-121.25-.62-21.83,5.33-40.72,15.38-59.56,21.65-40.58,35.47-83.16,33.43-130.27-1-22.08-1.35-44.3-1.07-66.53.8-64.92,9.47-128.84,20-192.66,1-6,1.52-12.07.55-18.1-2.7-16.76-17.2-23.73-31.94-15.74-8.49,4.61-12.28,11.91-13.89,21Q694.4,363.29,685,415c-2.31,12.75-8.53,18.76-18,17.77-11.12-1.16-16.79-9.32-15.78-22.77.56-7.38,1.26-14.75,1.73-22.14,1.86-29.2,4.24-58.39,5.3-87.63,1-26.91,4-53.74,2.92-80.71-.65-16.38-13-24.67-28.6-19.6-11.52,3.73-15,12.71-15.77,23.42q-6.27,82-12.43,164c-.54,7-1,14.17-2.59,21-1.92,8.53-7.48,13.17-16.78,12.72s-9.2-7.39-10-13.68a112.24,112.24,0,0,1-.65-13.1Q574.38,346.3,574.43,298.3Z" transform="translate(-190.44 -78.1)"/></svg>