<svg xmlns="http://www.w3.org/2000/svg" xmlns:xlink="http://www.w3.org/1999/xlink" viewBox="0 0 447.11 432.6"><defs><style>.cls-1{opacity:0.1;fill:url(#linear-gradient);}.cls-10,.cls-12,.cls-2{fill:#233863;}.cls-3{fill:#2f4770;}.cls-4{fill:#fff;}.cls-5{fill:#ffb44f;}.cls-6{fill:#5a6f8e;}.cls-7{fill:#3aaed5;}.cls-8{fill:#3d85fd;}.cls-9{opacity:0.11;}.cls-10{stroke:#fff;stroke-width:2.13px;}.cls-10,.cls-11{stroke-miterlimit:10;}.cls-11{fill:none;stroke:#233863;stroke-linecap:round;stroke-width:3.2px;}.cls-12{opacity:0.36;}</style><linearGradient id="linear-gradient" x1="47.02" y1="239.33" x2="469.4" y2="239.33" gradientTransform="matrix(-1, 0, 0, 1, 516.43, 0)" gradientUnits="userSpaceOnUse"><stop offset="0" stop-color="#4f52ff"/><stop offset="1" stop-color="#4042e2"/></linearGradient></defs><title>payment</title><g id="Background"><path class="cls-1" d="M64.73,315.28c41,97.91,150.14,152.75,244.8,138,15.41-2.41,57.64-9.58,95-43.41,72-65.13,87.37-194.09,29.3-285-42.25-66.15-118-103.64-190-101.77C228.37,23.5,169,26,116.73,69.68A197.38,197.38,0,0,0,76.9,115.53C41.1,172.34,38,251.48,64.73,315.28Z" transform="translate(-23.5 -23.03)"/></g><g id="OBJECTS"><path class="cls-2" d="M223.38,376.84l3.46,1.09A9.06,9.06,0,0,0,238.16,372l79-253.19a9.06,9.06,0,0,0-5.94-11.31l-3.46-1.09a9.06,9.06,0,0,0-11.32,5.94l-79,253.19A9.06,9.06,0,0,0,223.38,376.84Z" transform="translate(-23.5 -23.03)"/><path class="cls-2" d="M229.53,379.94a10.48,10.48,0,0,1-3.17-.49l-3.46-1.08h0a10.66,10.66,0,0,1-7-13.32l79-253.19a10.65,10.65,0,0,1,13.32-7l3.46,1.08a10.64,10.64,0,0,1,7,13.32l-79,253.19a10.7,10.7,0,0,1-10.16,7.47Z" transform="translate(-23.5 -23.03)"/><path class="cls-3" d="M359.47,436,242.4,399.49a24,24,0,0,1-15.73-30l78.46-251.33a24,24,0,0,1,30-15.72L452.2,139a24,24,0,0,1,15.72,30L389.47,420.31A24,24,0,0,1,359.47,436Z" transform="translate(-23.5 -23.03)"/><path class="cls-2" d="M366.59,438.72a25.42,25.42,0,0,1-7.6-1.16h0L241.92,401a25.54,25.54,0,0,1-16.77-32L303.6,117.69a25.58,25.58,0,0,1,32-16.78l117.07,36.55a25.58,25.58,0,0,1,16.78,32L391,420.79A25.59,25.59,0,0,1,366.59,438.72ZM360,434.51a22.35,22.35,0,0,0,28-14.68L466.4,168.51a22.38,22.38,0,0,0-14.68-28L334.65,104a22.38,22.38,0,0,0-28,14.68L228.2,370a22.35,22.35,0,0,0,14.68,28Z" transform="translate(-23.5 -23.03)"/><rect class="cls-4" x="317.25" y="125.85" width="104.91" height="143.16" transform="translate(47.58 468.49) rotate(-72.66)"/><path class="cls-2" d="M422.41,270.44a1.61,1.61,0,0,1-.48-.08L285.27,227.7a1.53,1.53,0,0,1-.93-.78,1.57,1.57,0,0,1-.11-1.22l31.26-100.15a1.58,1.58,0,0,1,2-1l136.66,42.66a1.58,1.58,0,0,1,.94.78,1.61,1.61,0,0,1,.11,1.22L423.94,269.31A1.61,1.61,0,0,1,422.41,270.44ZM287.75,225.13l133.61,41.71,30.31-97.1L318.06,128Z" transform="translate(-23.5 -23.03)"/><path class="cls-4" d="M437.2,150a.86.86,0,0,1-.32-.05l-95.39-29.77a1.07,1.07,0,0,1,.63-2l95.39,29.78a1.06,1.06,0,0,1-.31,2.08Z" transform="translate(-23.5 -23.03)"/><rect class="cls-5" x="328.42" y="133.91" width="6.65" height="24.81" rx="1.26" transform="translate(69.72 396.37) rotate(-72.66)"/><path class="cls-2" d="M341.77,153.93a2.35,2.35,0,0,1-.69-.1h0l-21.28-6.65a2.32,2.32,0,0,1-1.52-2.91l1.23-3.94a2.33,2.33,0,0,1,2.91-1.52l21.27,6.64a2.28,2.28,0,0,1,1.37,1.14,2.32,2.32,0,0,1,.16,1.77L344,152.3a2.35,2.35,0,0,1-1.14,1.37A2.42,2.42,0,0,1,341.77,153.93Zm-.06-2.14a.19.19,0,0,0,.24-.12l1.23-3.95a.21.21,0,0,0-.12-.24l-21.28-6.64a.23.23,0,0,0-.24.13l-1.23,3.94a.2.2,0,0,0,.13.24Z" transform="translate(-23.5 -23.03)"/><rect class="cls-5" x="360.04" y="143.78" width="6.65" height="24.81" rx="1.26" transform="translate(82.5 433.48) rotate(-72.66)"/><path class="cls-2" d="M373.39,163.8a2.35,2.35,0,0,1-.69-.1h0l-21.28-6.64a2.33,2.33,0,0,1-1.52-2.92l1.23-3.94a2.31,2.31,0,0,1,2.91-1.52l21.27,6.64a2.32,2.32,0,0,1,1.53,2.91l-1.23,3.94a2.35,2.35,0,0,1-1.14,1.37A2.42,2.42,0,0,1,373.39,163.8Zm-.06-2.14a.21.21,0,0,0,.24-.12l1.23-3.95a.22.22,0,0,0-.12-.24l-21.28-6.64a.22.22,0,0,0-.24.13l-1.23,3.94a.19.19,0,0,0,.13.24Z" transform="translate(-23.5 -23.03)"/><rect class="cls-5" x="394.04" y="154.4" width="6.65" height="24.81" rx="1.26" transform="translate(96.23 473.38) rotate(-72.66)"/><path class="cls-2" d="M407.38,174.41a2.35,2.35,0,0,1-.69-.1h0l-21.27-6.64a2.32,2.32,0,0,1-1.53-2.91l1.23-3.94a2.32,2.32,0,0,1,1.14-1.37,2.28,2.28,0,0,1,1.77-.16l21.28,6.64a2.32,2.32,0,0,1,1.52,2.91l-1.23,3.94A2.32,2.32,0,0,1,407.38,174.41Zm-.05-2.14a.18.18,0,0,0,.24-.12l1.23-3.94a.21.21,0,0,0-.13-.25l-21.27-6.64a.22.22,0,0,0-.24.13l-1.23,3.94a.18.18,0,0,0,.12.24Z" transform="translate(-23.5 -23.03)"/><rect class="cls-5" x="426.05" y="164.39" width="6.65" height="24.81" rx="1.26" transform="translate(109.17 510.95) rotate(-72.66)"/><path class="cls-2" d="M439.4,184.41a2.38,2.38,0,0,1-.7-.11h0l-21.27-6.64a2.32,2.32,0,0,1-1.37-1.14,2.28,2.28,0,0,1-.16-1.77l1.23-3.94a2.32,2.32,0,0,1,2.91-1.53l21.28,6.64a2.33,2.33,0,0,1,1.52,2.91l-1.23,3.94a2.34,2.34,0,0,1-2.21,1.64Zm-.06-2.14a.2.2,0,0,0,.24-.13l1.23-3.94a.2.2,0,0,0-.13-.24l-21.27-6.65a.21.21,0,0,0-.25.13l-1.23,3.94a.23.23,0,0,0,.13.25Z" transform="translate(-23.5 -23.03)"/><rect class="cls-2" x="335.36" y="196.54" width="25.78" height="139.26" transform="translate(-33.11 496.27) rotate(-72.66)"/><path class="cls-2" d="M410.88,300.83a1.61,1.61,0,0,1-.48-.08L277.47,259.26a1.6,1.6,0,0,1-1.05-2l7.68-24.6a1.59,1.59,0,0,1,2-1.05L419,273.1a1.6,1.6,0,0,1,1,2l-7.68,24.61a1.58,1.58,0,0,1-.79.93A1.48,1.48,0,0,1,410.88,300.83ZM280,256.68l129.88,40.55,6.73-21.56L286.67,235.12Z" transform="translate(-23.5 -23.03)"/><path class="cls-4" d="M322.65,264.14a2.71,2.71,0,0,1-.79-.12l-23.59-7.37a2.65,2.65,0,0,1-1.74-3.33l2.05-6.59a2.68,2.68,0,0,1,3.34-1.75l23.58,7.36a2.69,2.69,0,0,1,1.57,1.31,2.65,2.65,0,0,1,.18,2l-2.05,6.59A2.67,2.67,0,0,1,322.65,264.14Zm-.47-1.14a1.61,1.61,0,0,0,2-1.05l2.05-6.59a1.55,1.55,0,0,0-.11-1.21,1.57,1.57,0,0,0-.94-.79L301.6,246a1.59,1.59,0,0,0-2,1.05l-2.06,6.59a1.61,1.61,0,0,0,1,2Z" transform="translate(-23.5 -23.03)"/><path class="cls-4" d="M359.11,275.52a2.71,2.71,0,0,1-.79-.12L334.73,268a2.67,2.67,0,0,1-1.56-1.31,2.61,2.61,0,0,1-.19-2l2.06-6.59a2.62,2.62,0,0,1,1.3-1.56,2.67,2.67,0,0,1,2-.19L362,263.73a2.67,2.67,0,0,1,1.75,3.33l-2.06,6.59a2.67,2.67,0,0,1-2.54,1.87Zm-.48-1.14a1.57,1.57,0,0,0,1.22-.11,1.55,1.55,0,0,0,.78-.94l2.06-6.59a1.55,1.55,0,0,0-.11-1.21,1.6,1.6,0,0,0-.94-.79l-23.58-7.36a1.57,1.57,0,0,0-1.22.11,1.55,1.55,0,0,0-.78.94L334,265a1.55,1.55,0,0,0,.11,1.21,1.6,1.6,0,0,0,.94.79Z" transform="translate(-23.5 -23.03)"/><path class="cls-4" d="M396,287a2.42,2.42,0,0,1-.79-.13l-23.59-7.36a2.67,2.67,0,0,1-1.75-3.33l2.06-6.59a2.66,2.66,0,0,1,3.34-1.75l23.58,7.36a2.66,2.66,0,0,1,1.75,3.34l-2.06,6.59a2.65,2.65,0,0,1-1.3,1.56A2.71,2.71,0,0,1,396,287Zm-.47-1.14a1.6,1.6,0,0,0,2-1.05l2.05-6.59a1.59,1.59,0,0,0-1.05-2l-23.58-7.36a1.57,1.57,0,0,0-1.22.11,1.52,1.52,0,0,0-.78.94l-2.06,6.58a1.62,1.62,0,0,0,1.05,2Z" transform="translate(-23.5 -23.03)"/><rect class="cls-6" x="275.06" y="274.82" width="28.35" height="35.79" rx="9.04" transform="translate(-99.87 458.57) rotate(-72.66)"/><path class="cls-2" d="M296.16,310.9a10.48,10.48,0,0,1-3.17-.49l-16.91-5.28a10.64,10.64,0,0,1-7-13.32l3.06-9.81a10.66,10.66,0,0,1,13.32-7l16.92,5.28a10.66,10.66,0,0,1,7,13.32l-3.06,9.81a10.7,10.7,0,0,1-10.16,7.47Zm-13.84-33.16a7.46,7.46,0,0,0-7.11,5.22l-3.06,9.81a7.44,7.44,0,0,0,4.88,9.31L294,307.36h0a7.46,7.46,0,0,0,9.31-4.88l3.07-9.81a7.46,7.46,0,0,0-4.89-9.32l-16.91-5.28A7.41,7.41,0,0,0,282.32,277.74Z" transform="translate(-23.5 -23.03)"/><rect class="cls-6" x="321.29" y="289.25" width="28.35" height="35.79" rx="9.04" transform="translate(-81.2 512.82) rotate(-72.66)"/><path class="cls-2" d="M342.38,325.33a10.42,10.42,0,0,1-3.16-.49h0l-16.91-5.28a10.65,10.65,0,0,1-7-13.32l3.07-9.81a10.66,10.66,0,0,1,13.32-7l16.91,5.28a10.64,10.64,0,0,1,7,13.32l-3.06,9.81a10.7,10.7,0,0,1-10.16,7.47Zm-2.21-3.54a7.46,7.46,0,0,0,9.32-4.88l3.06-9.81a7.47,7.47,0,0,0-4.88-9.32l-16.92-5.28a7.47,7.47,0,0,0-9.31,4.89l-3.07,9.81a7.47,7.47,0,0,0,4.89,9.31Z" transform="translate(-23.5 -23.03)"/><rect class="cls-6" x="366.82" y="303.47" width="28.35" height="35.79" rx="9.04" transform="translate(-62.8 566.26) rotate(-72.66)"/><path class="cls-2" d="M387.91,339.54a10.5,10.5,0,0,1-3.16-.48l-16.91-5.28a10.66,10.66,0,0,1-7-13.32l3.07-9.81a10.65,10.65,0,0,1,13.32-7l16.91,5.27a10.65,10.65,0,0,1,7,13.33l-3.06,9.81A10.66,10.66,0,0,1,387.91,339.54Zm-13.83-33.16a7.45,7.45,0,0,0-3.46.86A7.34,7.34,0,0,0,367,311.6l-3.07,9.81a7.46,7.46,0,0,0,4.89,9.32L385.7,336h0a7.45,7.45,0,0,0,9.32-4.89l3.06-9.81A7.44,7.44,0,0,0,393.2,312l-16.92-5.28A7.21,7.21,0,0,0,374.08,306.38Z" transform="translate(-23.5 -23.03)"/><rect class="cls-6" x="263.77" y="311.02" width="28.35" height="35.79" rx="9.04" transform="translate(-142.35 473.19) rotate(-72.66)"/><path class="cls-2" d="M284.86,347.09a10.5,10.5,0,0,1-3.16-.48h0l-16.92-5.28a10.66,10.66,0,0,1-7-13.32l3.06-9.81a10.64,10.64,0,0,1,13.32-7l16.92,5.28a10.66,10.66,0,0,1,7,13.32L295,339.63A10.66,10.66,0,0,1,284.86,347.09Zm-2.21-3.53a7.46,7.46,0,0,0,9.32-4.89l3.06-9.81a7.45,7.45,0,0,0-4.89-9.31l-16.91-5.28a7.47,7.47,0,0,0-9.32,4.88L260.85,329a7.46,7.46,0,0,0,4.89,9.32Z" transform="translate(-23.5 -23.03)"/><rect class="cls-6" x="309.99" y="325.45" width="28.35" height="35.79" rx="9.04" transform="matrix(0.3, -0.95, 0.95, 0.3, -123.68, 527.44)"/><path class="cls-2" d="M331.08,361.52a10.54,10.54,0,0,1-3.16-.48h0L311,355.76a10.66,10.66,0,0,1-7-13.32l3.06-9.81a10.64,10.64,0,0,1,13.32-7l16.91,5.28a10.66,10.66,0,0,1,7,13.32l-3.06,9.81A10.66,10.66,0,0,1,331.08,361.52ZM328.87,358a7.45,7.45,0,0,0,9.32-4.89l3.06-9.81a7.46,7.46,0,0,0-4.88-9.31l-16.92-5.28a7.44,7.44,0,0,0-9.31,4.88l-3.06,9.81a7.46,7.46,0,0,0,4.88,9.32Z" transform="translate(-23.5 -23.03)"/><rect class="cls-6" x="355.52" y="339.66" width="28.35" height="35.79" rx="9.04" transform="translate(-105.28 580.88) rotate(-72.66)"/><path class="cls-2" d="M376.61,375.74a10.56,10.56,0,0,1-3.16-.49h0L356.54,370a10.64,10.64,0,0,1-7-13.32l3.06-9.81a10.64,10.64,0,0,1,13.32-7l16.91,5.28a10.66,10.66,0,0,1,7,13.32l-3.06,9.81A10.67,10.67,0,0,1,376.61,375.74Zm-2.21-3.54a7.45,7.45,0,0,0,9.32-4.88l3.06-9.81a7.46,7.46,0,0,0-4.88-9.32L365,342.91a7.46,7.46,0,0,0-9.31,4.88l-3.06,9.81a7.44,7.44,0,0,0,4.88,9.32Z" transform="translate(-23.5 -23.03)"/><rect class="cls-7" x="252.47" y="347.21" width="28.35" height="35.79" rx="9.04" transform="translate(-184.84 487.81) rotate(-72.66)"/><path class="cls-2" d="M273.56,383.29a10.42,10.42,0,0,1-3.16-.49h0l-16.92-5.28a10.66,10.66,0,0,1-7-13.32l3.06-9.81a10.66,10.66,0,0,1,13.33-7l16.91,5.28a10.64,10.64,0,0,1,7,13.32l-3.06,9.81a10.7,10.7,0,0,1-10.16,7.47Zm-2.21-3.54a7.46,7.46,0,0,0,9.32-4.88l3.06-9.81a7.46,7.46,0,0,0-4.88-9.32l-16.92-5.28a7.45,7.45,0,0,0-9.31,4.89l-3.07,9.81a7.45,7.45,0,0,0,4.89,9.31Z" transform="translate(-23.5 -23.03)"/><rect class="cls-5" x="298.69" y="361.64" width="28.35" height="35.79" rx="9.04" transform="translate(-166.16 542.07) rotate(-72.66)"/><path class="cls-2" d="M319.78,397.72a10.42,10.42,0,0,1-3.16-.49L299.71,392a10.66,10.66,0,0,1-7-13.32l3.06-9.81a10.66,10.66,0,0,1,13.32-7L326,367.12a10.64,10.64,0,0,1,7,13.32l-3.06,9.81a10.52,10.52,0,0,1-5.22,6.24A10.66,10.66,0,0,1,319.78,397.72ZM306,364.55a7.48,7.48,0,0,0-7.11,5.23l-3.06,9.81a7.46,7.46,0,0,0,4.88,9.31l16.91,5.28h0a7.46,7.46,0,0,0,9.32-4.88l3.06-9.81a7.43,7.43,0,0,0-4.88-9.32l-16.91-5.28A7.65,7.65,0,0,0,306,364.55Z" transform="translate(-23.5 -23.03)"/><rect class="cls-8" x="344.22" y="375.85" width="28.35" height="35.79" rx="9.04" transform="matrix(0.3, -0.95, 0.95, 0.3, -147.76, 595.51)"/><path class="cls-2" d="M365.31,411.93a10.72,10.72,0,0,1-3.16-.48h0l-16.91-5.28a10.66,10.66,0,0,1-7-13.33l3.06-9.8a10.67,10.67,0,0,1,13.32-7l16.91,5.28a10.66,10.66,0,0,1,7,13.32l-3.06,9.81a10.7,10.7,0,0,1-10.16,7.47Zm-2.21-3.54a7.46,7.46,0,0,0,9.32-4.88l3.06-9.81a7.47,7.47,0,0,0-4.88-9.32l-16.91-5.28a7.48,7.48,0,0,0-9.32,4.89l-3.06,9.81a7.46,7.46,0,0,0,4.88,9.31Z" transform="translate(-23.5 -23.03)"/><path class="cls-2" d="M357.62,441.58,240.76,405.1a7.21,7.21,0,0,1-4.71-9h0a7.21,7.21,0,0,1,9-4.71L361.9,427.88a7.21,7.21,0,0,1,4.71,9h0A7.19,7.19,0,0,1,357.62,441.58Z" transform="translate(-23.5 -23.03)"/><path class="cls-2" d="M359.75,443.51a8.81,8.81,0,0,1-2.61-.4h0L240.29,406.63a8.77,8.77,0,0,1,5.23-16.75l116.85,36.48a8.78,8.78,0,0,1,5.76,11A8.79,8.79,0,0,1,359.75,443.51Zm-1.66-3.45a5.58,5.58,0,0,0,3.33-10.65L244.56,392.93a5.58,5.58,0,0,0-3.32,10.65Z" transform="translate(-23.5 -23.03)"/><path class="cls-4" d="M355.75,385.5a2.54,2.54,0,1,1-2.54-2.54A2.54,2.54,0,0,1,355.75,385.5Z" transform="translate(-23.5 -23.03)"/><path class="cls-4" d="M310.22,371.59a2.54,2.54,0,1,1-2.54-2.54A2.53,2.53,0,0,1,310.22,371.59Z" transform="translate(-23.5 -23.03)"/><path class="cls-4" d="M262.5,356.35a2.54,2.54,0,1,1-2.54-2.54A2.54,2.54,0,0,1,262.5,356.35Z" transform="translate(-23.5 -23.03)"/><path class="cls-4" d="M368,404a1.32,1.32,0,1,1-1.32-1.32A1.32,1.32,0,0,1,368,404Z" transform="translate(-23.5 -23.03)"/><path class="cls-2" d="M375.82,311a1.7,1.7,0,1,1-1.7-1.7A1.7,1.7,0,0,1,375.82,311Z" transform="translate(-23.5 -23.03)"/><path class="cls-2" d="M363.67,349a1.7,1.7,0,1,1-1.7-1.7A1.7,1.7,0,0,1,363.67,349Z" transform="translate(-23.5 -23.03)"/><path class="cls-3" d="M417.7,250.2a4.45,4.45,0,1,1-4.45-4.45A4.44,4.44,0,0,1,417.7,250.2Z" transform="translate(-23.5 -23.03)"/><path class="cls-2" d="M413.26,256.24a6,6,0,1,1,6-6A6,6,0,0,1,413.26,256.24Zm0-8.89a2.85,2.85,0,1,0,2.84,2.85A2.85,2.85,0,0,0,413.26,247.35Z" transform="translate(-23.5 -23.03)"/><circle class="cls-2" cx="138.46" cy="369.27" r="53.53"/><circle class="cls-2" cx="156.81" cy="389.43" r="53.53" transform="translate(-281.73 429.55) rotate(-76.72)"/><circle class="cls-5" cx="156.81" cy="389.43" r="53.53" transform="translate(-281.73 429.55) rotate(-76.72)"/><path class="cls-2" d="M156.81,444.56a55.13,55.13,0,1,1,55.13-55.13A55.2,55.2,0,0,1,156.81,444.56Zm0-107.07a51.94,51.94,0,1,0,51.94,51.94A52,52,0,0,0,156.81,337.49Z" transform="translate(-23.5 -23.03)"/><path class="cls-4" d="M156.81,433.61A44.18,44.18,0,1,1,201,389.43,44.23,44.23,0,0,1,156.81,433.61Zm0-86.23a42.05,42.05,0,1,0,42.05,42.05A42.1,42.1,0,0,0,156.81,347.38Z" transform="translate(-23.5 -23.03)"/><path class="cls-4" d="M156.32,428.82a39.4,39.4,0,1,1,39.4-39.39A39.44,39.44,0,0,1,156.32,428.82Zm0-76.66a37.27,37.27,0,1,0,37.27,37.27A37.31,37.31,0,0,0,156.32,352.16Z" transform="translate(-23.5 -23.03)"/><path class="cls-2" d="M171.09,395.59a13.39,13.39,0,0,1-3.79,9.3,12.71,12.71,0,0,1-5.76,3.52V411a4.61,4.61,0,0,1-1.27,3.22,4.38,4.38,0,0,1-3.15,1.33,4.59,4.59,0,0,1-4.64-4.55v-2.06h-4.21a6.66,6.66,0,0,1-4.58-1.6,5.48,5.48,0,0,1-1.63-4.09c0-3.31,2.21-5,6.21-5h10a2.15,2.15,0,0,0,1.33-.49,2,2,0,0,0-.24-3.3,3.17,3.17,0,0,0-.7-.24l-.33-.06h-4.76a12.79,12.79,0,0,1-8.57-3.55,11.59,11.59,0,0,1-3.52-8.39,13,13,0,0,1,3.88-9.15,13.23,13.23,0,0,1,7.15-3.7v-1.7a4.53,4.53,0,1,1,9.06,0v1.52h1.61c4,0,6.3,1.91,6.3,5.21,0,3.64-2.33,5.58-6.3,5.58h-9.31a1.62,1.62,0,0,0-1.75,1.66c0,1,.54,1.82,1.42,1.82h4.58a13.62,13.62,0,0,1,9.21,3.42A11.55,11.55,0,0,1,171.09,395.59Z" transform="translate(-23.5 -23.03)"/><path class="cls-2" d="M187,391.08a3.87,3.87,0,1,1-3.87-3.86A3.86,3.86,0,0,1,187,391.08Z" transform="translate(-23.5 -23.03)"/><path class="cls-2" d="M132.7,391.08a3.86,3.86,0,1,1-3.86-3.86A3.86,3.86,0,0,1,132.7,391.08Z" transform="translate(-23.5 -23.03)"/><path class="cls-2" d="M120.46,326.72a19.34,19.34,0,1,1-14.65-23.09A19.34,19.34,0,0,1,120.46,326.72Z" transform="translate(-23.5 -23.03)"/><circle class="cls-2" cx="100" cy="321.08" r="19.34" transform="translate(-246.07 202.99) rotate(-56.28)"/><circle class="cls-5" cx="100" cy="321.08" r="19.34" transform="translate(-246.07 202.99) rotate(-56.28)"/><path class="cls-2" d="M100,341.48a20.56,20.56,0,0,1-4.45-.49,20.4,20.4,0,1,1,24.36-15.46h0A20.43,20.43,0,0,1,100,341.48Zm0-38.68a18.36,18.36,0,1,0,4,.45A18.42,18.42,0,0,0,100,302.8Zm18.9,22.5h0Z" transform="translate(-23.5 -23.03)"/><path class="cls-4" d="M100,337.06a16.14,16.14,0,0,1-3.51-.39h0a16,16,0,1,1,12-2.11A15.82,15.82,0,0,1,100,337.06Zm-3.33-1.17A15.17,15.17,0,1,0,85.2,317.77a15.08,15.08,0,0,0,11.49,18.12Z" transform="translate(-23.5 -23.03)"/><path class="cls-4" d="M99.83,335.29a13.8,13.8,0,0,1-3.11-.35,14.21,14.21,0,1,1,3.11.35Zm0-27.7a13.47,13.47,0,0,0-13.1,10.51,13.46,13.46,0,0,0,10.18,16.06,13.44,13.44,0,1,0,5.87-26.24h0A13.47,13.47,0,0,0,99.81,307.59Z" transform="translate(-23.5 -23.03)"/><path class="cls-2" d="M104.54,324.38a4.82,4.82,0,0,1-2.07,3,4.52,4.52,0,0,1-2.3.78l-.2.9a1.71,1.71,0,0,1-.7,1,1.58,1.58,0,0,1-1.22.22,1.61,1.61,0,0,1-1-.73,1.63,1.63,0,0,1-.22-1.24l.16-.72-1.49-.33a2.38,2.38,0,0,1-1.48-.93,2,2,0,0,1-.26-1.57c.27-1.16,1.18-1.58,2.59-1.26l3.51.78a.85.85,0,0,0,.51-.06.66.66,0,0,0,.38-.48.64.64,0,0,0-.21-.7.77.77,0,0,0-.23-.14l-.11-.05-1.68-.38a4.63,4.63,0,0,1-2.74-1.92,4.24,4.24,0,0,1-.57-3.24,4.74,4.74,0,0,1,2.09-2.92,4.79,4.79,0,0,1,2.81-.74l.13-.59a1.63,1.63,0,1,1,3.19.71l-.12.54.57.12c1.4.32,2.07,1.17,1.81,2.34s-1.26,1.78-2.66,1.46l-3.28-.73A.6.6,0,0,0,99,318a.57.57,0,0,0,.36.75l1.61.36a5,5,0,0,1,3,1.93A4.16,4.16,0,0,1,104.54,324.38Z" transform="translate(-23.5 -23.03)"/><path class="cls-2" d="M110.5,324a1.39,1.39,0,0,1-1.66,1.06A1.4,1.4,0,1,1,110.5,324Z" transform="translate(-23.5 -23.03)"/><path class="cls-2" d="M91.37,319.76a1.39,1.39,0,0,1-1.66,1.06,1.4,1.4,0,1,1,1.66-1.06Z" transform="translate(-23.5 -23.03)"/><circle class="cls-2" cx="68.37" cy="372.02" r="26.04" transform="translate(-241.4 101.76) rotate(-38.77)"/><circle class="cls-2" cx="65.58" cy="371.36" r="26.04" transform="translate(-330.71 405.21) rotate(-88.66)"/><circle class="cls-5" cx="65.58" cy="371.36" r="26.04" transform="translate(-330.71 405.21) rotate(-88.66)"/><path class="cls-2" d="M65.59,399A27.65,27.65,0,1,1,73.11,398,27.69,27.69,0,0,1,65.59,399Zm0-52.09a24.78,24.78,0,0,0-6.7.93,24.37,24.37,0,1,0,6.7-.93Z" transform="translate(-23.5 -23.03)"/><path class="cls-4" d="M65.59,392.73a21.37,21.37,0,0,1-5.83-41.93,21.37,21.37,0,1,1,5.83,41.93Zm0-42a20.87,20.87,0,0,0-5.62.78,20.57,20.57,0,0,0,11.22,39.59h0a20.58,20.58,0,0,0-5.6-40.37Z" transform="translate(-23.5 -23.03)"/><path class="cls-4" d="M65.34,390.47a19,19,0,0,1-5.18-37.37h0a19,19,0,0,1,10.38,36.65A19.35,19.35,0,0,1,65.34,390.47Zm0-37.3a18.09,18.09,0,0,0-5,.7h0a18.08,18.08,0,1,0,5-.7Z" transform="translate(-23.5 -23.03)"/><path class="cls-2" d="M73.08,372.35a6.48,6.48,0,0,1-.54,4.85,6.17,6.17,0,0,1-2.23,2.41l.34,1.2a2.25,2.25,0,0,1-.17,1.67,2.12,2.12,0,0,1-1.3,1A2.23,2.23,0,0,1,66.41,382l-.28-1-2,.56a3.21,3.21,0,0,1-2.35-.15,2.63,2.63,0,0,1-1.31-1.69c-.44-1.55.37-2.62,2.25-3.15l4.67-1.32a1.13,1.13,0,0,0,.56-.41.91.91,0,0,0,.15-.81.87.87,0,0,0-.71-.7,1.15,1.15,0,0,0-.35,0H66.9l-2.23.63a6.22,6.22,0,0,1-4.48-.52A5.66,5.66,0,0,1,57.43,370a6.38,6.38,0,0,1,.6-4.8,6.44,6.44,0,0,1,2.86-2.68l-.22-.8a2.08,2.08,0,0,1,.21-1.68A2.16,2.16,0,0,1,62.22,359a2.2,2.2,0,0,1,2.69,1.54l.2.71.75-.21c1.86-.53,3.21.06,3.64,1.6.49,1.71-.35,2.92-2.21,3.45l-4.35,1.23a.8.8,0,0,0-.61,1c.14.47.5.79.91.67l2.15-.61a6.63,6.63,0,0,1,4.76.38A5.59,5.59,0,0,1,73.08,372.35Z" transform="translate(-23.5 -23.03)"/><path class="cls-2" d="M79.92,368.13a1.88,1.88,0,1,1-2.32-1.29A1.88,1.88,0,0,1,79.92,368.13Z" transform="translate(-23.5 -23.03)"/><circle class="cls-2" cx="52.71" cy="375.84" r="1.88" transform="translate(-324.57 215.41) rotate(-60.79)"/><path class="cls-2" d="M258.75,269.51,147.87,264a9.43,9.43,0,0,1-9-9.89l8.31-166.81A28.54,28.54,0,0,1,177.16,60.2l73.6,3.67a28.54,28.54,0,0,1,27.08,29.92l-8.27,165.92A10.33,10.33,0,0,1,258.75,269.51Z" transform="translate(-23.5 -23.03)"/><path class="cls-4" d="M251.61,269.51,140.74,264a9.44,9.44,0,0,1-9-9.89L140.1,87.28A28.53,28.53,0,0,1,170,60.2l73.6,3.67a28.54,28.54,0,0,1,27.09,29.92l-8.27,165.92A10.34,10.34,0,0,1,251.61,269.51Z" transform="translate(-23.5 -23.03)"/><path class="cls-2" d="M252.13,271.12l-.6,0h0l-110.87-5.53A11,11,0,0,1,130.19,254L138.5,87.2a30.15,30.15,0,0,1,31.6-28.6l73.6,3.67a30.17,30.17,0,0,1,28.6,31.6L264,259.79A11.94,11.94,0,0,1,252.13,271.12Zm-.44-3.21a8.71,8.71,0,0,0,9.15-8.28l8.27-165.92a27,27,0,0,0-25.56-28.25L170,61.79A27,27,0,0,0,141.7,87.36l-8.32,166.81a7.84,7.84,0,0,0,7.43,8.21Z" transform="translate(-23.5 -23.03)"/><path class="cls-4" d="M242.3,63.84v0L137.4,58.57c-12.08-.6-22.37,9.12-23,21.72L114,89l106.09,5.29.43-8.66C221.1,73.4,230.74,63.9,242.3,63.84Z" transform="translate(-23.5 -23.03)"/><path class="cls-2" d="M220.06,95.84H220L113.89,90.55a1.61,1.61,0,0,1-1.52-1.68l.43-8.66a24.79,24.79,0,0,1,7.71-16.89,22.85,22.85,0,0,1,17-6.34l104.9,5.23a1.61,1.61,0,0,1,1.52,1.69,1.63,1.63,0,0,1-1.59,1.53c-10.78.07-19.66,8.95-20.23,20.23l-.43,8.66a1.59,1.59,0,0,1-1.59,1.52Zm-104.42-8.4,102.9,5.12.35-7.06a24.63,24.63,0,0,1,12.9-20.62l-94.47-4.71a19.71,19.71,0,0,0-14.62,5.47A21.66,21.66,0,0,0,116,80.37Z" transform="translate(-23.5 -23.03)"/><g class="cls-9"><path class="cls-2" d="M242.3,63.84v0L137.4,58.57c-12.08-.6-22.37,9.12-23,21.72L114,89l106.09,5.29.43-8.66C221.1,73.4,230.74,63.9,242.3,63.84Z" transform="translate(-23.5 -23.03)"/></g><line class="cls-4" x1="140.68" y1="83.91" x2="167.42" y2="85.24"/><path class="cls-2" d="M190.92,109.87h-.08l-26.74-1.34a1.6,1.6,0,0,1-1.52-1.67,1.63,1.63,0,0,1,1.68-1.52L191,106.67a1.6,1.6,0,0,1-.08,3.2Z" transform="translate(-23.5 -23.03)"/><line class="cls-4" x1="201.31" y1="87.71" x2="228.05" y2="89.04"/><path class="cls-2" d="M251.56,113.66h-.08l-26.74-1.33a1.6,1.6,0,1,1,.15-3.19l26.74,1.33a1.6,1.6,0,0,1-.07,3.19Z" transform="translate(-23.5 -23.03)"/><line class="cls-4" x1="139.11" y1="115.44" x2="192.22" y2="117.76"/><path class="cls-2" d="M215.72,142.38h-.07l-53.11-2.32A1.6,1.6,0,0,1,161,138.4a1.58,1.58,0,0,1,1.67-1.53l53.11,2.32a1.6,1.6,0,0,1-.07,3.19Z" transform="translate(-23.5 -23.03)"/><line class="cls-4" x1="137.62" y1="132.81" x2="159.77" y2="134.05"/><path class="cls-2" d="M183.27,158.67h-.09L161,157.43a1.6,1.6,0,0,1,.18-3.19l22.15,1.24a1.6,1.6,0,0,1-.09,3.19Z" transform="translate(-23.5 -23.03)"/><line class="cls-4" x1="139.89" y1="99.69" x2="178.02" y2="101.59"/><path class="cls-2" d="M201.53,126.21h-.08l-38.14-1.9a1.6,1.6,0,0,1,.16-3.19L201.6,123a1.6,1.6,0,0,1-.07,3.19Z" transform="translate(-23.5 -23.03)"/><line class="cls-4" x1="187.27" y1="102.05" x2="192.22" y2="102.3"/><path class="cls-2" d="M215.72,126.92h-.08l-4.95-.25a1.6,1.6,0,1,1,.16-3.19l5,.25a1.6,1.6,0,0,1-.08,3.19Z" transform="translate(-23.5 -23.03)"/><path class="cls-10" d="M252.19,152.41A11.2,11.2,0,0,1,248.7,160a10.64,10.64,0,0,1-4.92,2.73l-.1,2.12a3.84,3.84,0,0,1-1.17,2.63,3.62,3.62,0,0,1-2.67,1,3.86,3.86,0,0,1-3.71-3.95l.08-1.72-3.51-.15a5.55,5.55,0,0,1-3.76-1.5,4.56,4.56,0,0,1-1.22-3.47c.12-2.75,2-4.06,5.35-3.92l8.31.35a1.81,1.81,0,0,0,1.13-.35,1.68,1.68,0,0,0-.08-2.77,3,3,0,0,0-.58-.22l-.27-.06-4-.17a10.72,10.72,0,0,1-7-3.26A9.72,9.72,0,0,1,228,140.2a10.85,10.85,0,0,1,3.56-7.49,11,11,0,0,1,6.09-2.83l.06-1.41a3.62,3.62,0,0,1,1.25-2.63,3.75,3.75,0,0,1,6.3,2.95l-.05,1.26,1.34.06c3.3.14,5.18,1.81,5.07,4.56-.13,3-2.15,4.57-5.46,4.43l-7.75-.33a1.36,1.36,0,0,0-1.52,1.32c0,.84.39,1.54,1.12,1.57l3.81.16a11.39,11.39,0,0,1,7.56,3.18A9.65,9.65,0,0,1,252.19,152.41Z" transform="translate(-23.5 -23.03)"/><line class="cls-11" x1="92.49" y1="57.34" x2="115.2" y2="58.27"/><polyline class="cls-7" points="18.38 146.03 104.95 262.32 179.17 207.06 90.97 88.58 90.2 101.75 78.02 98.86 77.3 111.36 65.76 108.62 65.07 120.68 53.75 117.99 53.07 129.83 41.75 127.14 41.13 137.86 28.73 134.91 27.98 147.86 18.38 146.03"/><path class="cls-2" d="M128.45,286.94l-.23,0a1.57,1.57,0,0,1-1-.62L40.6,170a1.6,1.6,0,0,1,1.58-2.52L50,169l.65-11.13a1.6,1.6,0,0,1,2-1.47l10.55,2.51.51-8.82a1.62,1.62,0,0,1,.64-1.19,1.59,1.59,0,0,1,1.32-.27l9.46,2.25.58-9.93a1.59,1.59,0,0,1,.64-1.19,1.56,1.56,0,0,1,1.32-.28l9.46,2.25.59-10.15a1.61,1.61,0,0,1,2-1.47l9.67,2.3.62-10.6a1.57,1.57,0,0,1,.64-1.19,1.59,1.59,0,0,1,1.32-.27l10.33,2.45.65-11.27a1.6,1.6,0,0,1,2.88-.86L204,229.13a1.61,1.61,0,0,1-.33,2.24l-74.22,55.25A1.61,1.61,0,0,1,128.45,286.94ZM45.62,171.4l83.16,111.71,71.66-53.35L115.81,116.08l-.51,8.79a1.59,1.59,0,0,1-2,1.46L103,123.88l-.62,10.6a1.59,1.59,0,0,1-2,1.46l-9.68-2.3-.59,10.16a1.59,1.59,0,0,1-2,1.46L78.74,143l-.58,9.93a1.6,1.6,0,0,1-2,1.47l-9.46-2.25L66.23,161a1.61,1.61,0,0,1-2,1.47l-10.54-2.51-.64,11a1.63,1.63,0,0,1-.61,1.17,1.66,1.66,0,0,1-1.29.31Z" transform="translate(-23.5 -23.03)"/><line class="cls-4" x1="44.87" y1="160.92" x2="67.69" y2="143.93"/><path class="cls-4" d="M68.37,185.55a1.61,1.61,0,0,1-1.28-.65,1.59,1.59,0,0,1,.33-2.23l22.82-17a1.6,1.6,0,0,1,1.91,2.56l-22.82,17A1.63,1.63,0,0,1,68.37,185.55Z" transform="translate(-23.5 -23.03)"/><line class="cls-4" x1="51.62" y1="170" x2="93.58" y2="138.76"/><path class="cls-2" d="M75.13,194.62a1.56,1.56,0,0,1-1.28-.65,1.59,1.59,0,0,1,.32-2.23l42-31.23a1.6,1.6,0,1,1,1.91,2.56L76.08,194.3A1.55,1.55,0,0,1,75.13,194.62Z" transform="translate(-23.5 -23.03)"/><line class="cls-4" x1="98.11" y1="135.39" x2="103.73" y2="131.2"/><path class="cls-4" d="M121.62,160a1.6,1.6,0,0,1-1-2.88l5.62-4.18a1.6,1.6,0,1,1,1.91,2.56l-5.62,4.18A1.55,1.55,0,0,1,121.62,160Z" transform="translate(-23.5 -23.03)"/><line class="cls-4" x1="61.35" y1="183.05" x2="76.76" y2="171.58"/><path class="cls-2" d="M84.85,207.68a1.6,1.6,0,0,1-1-2.88l15.42-11.48a1.6,1.6,0,1,1,1.91,2.56L85.8,207.36A1.6,1.6,0,0,1,84.85,207.68Z" transform="translate(-23.5 -23.03)"/><line class="cls-4" x1="83.42" y1="166.62" x2="113.45" y2="144.26"/><path class="cls-2" d="M106.92,191.25a1.6,1.6,0,0,1-1-2.88L136,166a1.6,1.6,0,0,1,1.91,2.57l-30,22.36A1.6,1.6,0,0,1,106.92,191.25Z" transform="translate(-23.5 -23.03)"/><line class="cls-4" x1="75.62" y1="202.23" x2="109.45" y2="177.05"/><path class="cls-4" d="M99.12,226.85a1.6,1.6,0,0,1-1-2.88L132,198.79a1.59,1.59,0,0,1,1.9,2.56l-33.82,25.19A1.62,1.62,0,0,1,99.12,226.85Z" transform="translate(-23.5 -23.03)"/><line class="cls-4" x1="125.79" y1="193.4" x2="141.39" y2="181.79"/><path class="cls-2" d="M149.29,218a1.6,1.6,0,0,1-.95-2.88l15.6-11.62a1.6,1.6,0,0,1,1.91,2.56l-15.61,11.62A1.6,1.6,0,0,1,149.29,218Z" transform="translate(-23.5 -23.03)"/><polyline class="cls-5" points="135.28 124.3 124.5 210.77 190.33 218.98 201.31 130.87 194.53 136.15 189.52 129.71 183.08 134.72 178.34 128.63 172.13 133.46 167.48 127.48 161.38 132.22 156.73 126.25 151.22 130.54 146.12 123.99 139.45 129.18 135.37 123.94"/><path class="cls-2" d="M213.83,243.6h-.2l-65.83-8.21a1.6,1.6,0,0,1-1.38-1.78l10.78-86.47a1.45,1.45,0,0,1,.08-.36,1.6,1.6,0,0,1,2.85-.79l3.1,4,5.41-4.21a1.61,1.61,0,0,1,2.24.28l4.12,5.29,4.25-3.31a1.61,1.61,0,0,1,2.25.28l3.67,4.72,4.83-3.76a1.58,1.58,0,0,1,2.24.28l3.67,4.71,5-3.85a1.6,1.6,0,0,1,2.24.28l3.76,4.83,5.18-4a1.58,1.58,0,0,1,2.24.28l4,5.17,5.52-4.3a1.61,1.61,0,0,1,1.77-.12,1.58,1.58,0,0,1,.8,1.58l-11,88.11a1.6,1.6,0,0,1-1.58,1.4Zm-64.05-11.19,62.66,7.81,10.31-82.69L219,160.44a1.6,1.6,0,0,1-2.24-.28l-4-5.18-5.18,4a1.6,1.6,0,0,1-2.24-.28l-3.76-4.83-4.95,3.85a1.55,1.55,0,0,1-1.17.32,1.59,1.59,0,0,1-1.07-.6l-3.67-4.72-4.83,3.76a1.59,1.59,0,0,1-2.24-.28L180,151.51l-4.25,3.32a1.57,1.57,0,0,1-1.18.32,1.59,1.59,0,0,1-1.06-.6l-4.12-5.29-5.41,4.2a1.58,1.58,0,0,1-2.24-.28l-1.75-2.24Z" transform="translate(-23.5 -23.03)"/><path class="cls-4" d="M185.75,168.57h-.13L165.38,166a1.07,1.07,0,0,1-.93-1.19,1.06,1.06,0,0,1,1.19-.93l20.24,2.53a1.06,1.06,0,0,1-.13,2.12Z" transform="translate(-23.5 -23.03)"/><line class="cls-4" x1="141.17" y1="148.7" x2="178.37" y2="153.34"/><path class="cls-2" d="M201.88,177.43h-.14l-37.21-4.64a1.06,1.06,0,1,1,.27-2.11L202,175.31a1.06,1.06,0,0,1-.13,2.12Z" transform="translate(-23.5 -23.03)"/><path class="cls-4" d="M210.88,178.55h-.13l-5-.62a1.06,1.06,0,1,1,.26-2.11l5,.62a1.06,1.06,0,0,1-.13,2.12Z" transform="translate(-23.5 -23.03)"/><line class="cls-4" x1="139.95" y1="158.41" x2="153.63" y2="160.12"/><path class="cls-2" d="M177.13,184.21H177l-13.68-1.71a1.06,1.06,0,1,1,.27-2.11l13.67,1.7a1.07,1.07,0,0,1-.13,2.13Z" transform="translate(-23.5 -23.03)"/><line class="cls-4" x1="159.53" y1="160.85" x2="186.17" y2="164.17"/><path class="cls-2" d="M209.67,188.26h-.13l-26.64-3.33a1.06,1.06,0,1,1,.26-2.11l26.64,3.32a1.06,1.06,0,0,1-.13,2.12Z" transform="translate(-23.5 -23.03)"/><line class="cls-4" x1="138.18" y1="172.67" x2="168.18" y2="176.41"/><path class="cls-2" d="M191.68,200.5h-.13l-30-3.74a1.06,1.06,0,1,1,.26-2.11l30,3.74a1.06,1.06,0,0,1-.13,2.12Z" transform="translate(-23.5 -23.03)"/><line class="cls-4" x1="168.85" y1="190.35" x2="182.69" y2="192.08"/><path class="cls-2" d="M206.19,216.7H206L192.16,215a1.6,1.6,0,0,1,.39-3.17l13.84,1.73a1.6,1.6,0,0,1-.2,3.18Z" transform="translate(-23.5 -23.03)"/><path class="cls-8" d="M336.66,307.28,164.78,348.77a10.08,10.08,0,0,1-12.17-7.44L125.26,228a10.08,10.08,0,0,1,7.44-12.17l171.88-41.49a10.08,10.08,0,0,1,12.17,7.44L344.1,295.11A10.1,10.1,0,0,1,336.66,307.28Z" transform="translate(-23.5 -23.03)"/><path class="cls-2" d="M162.39,350.66a11.69,11.69,0,0,1-11.33-9L123.71,228.42a11.7,11.7,0,0,1,8.61-14.1L304.2,172.83a11.69,11.69,0,0,1,14.1,8.61l27.35,113.29a11.7,11.7,0,0,1-8.61,14.1h0L165.16,350.32A11.41,11.41,0,0,1,162.39,350.66Zm144.55-175a8.59,8.59,0,0,0-2,.24l-171.88,41.5a8.5,8.5,0,0,0-6.26,10.24L154.16,341a8.5,8.5,0,0,0,10.25,6.26l171.88-41.5h0a8.49,8.49,0,0,0,6.26-10.24L315.19,182.19A8.5,8.5,0,0,0,306.94,175.69Zm29.72,131.59h0Z" transform="translate(-23.5 -23.03)"/><path class="cls-12" d="M284,177.49,233.52,189.8,245.26,238c1.53,6.24-3.81,12.91-11.92,14.89h0c-15.4,3.75-25.54,16.41-22.64,28.27h0c1.22,5-3.07,10.38-9.59,12h0c-18.19,4.43-30.16,19.39-26.75,33.4l4.62,19,154.31-37.62a14.21,14.21,0,0,0,10.44-17.18L318.14,185.73a16.08,16.08,0,0,0-19.43-11.82Z" transform="translate(-23.5 -23.03)"/><rect class="cls-2" x="165.68" y="280.9" width="26.2" height="7.21" rx="1.09" transform="translate(-85.8 27.42) rotate(-13.7)"/><rect class="cls-2" x="195.59" y="273.61" width="26.2" height="7.21" rx="1.09" transform="translate(-83.22 34.29) rotate(-13.7)"/><rect class="cls-2" x="224.87" y="266.47" width="26.2" height="7.21" rx="1.09" transform="translate(-80.7 41.02) rotate(-13.7)"/><rect class="cls-2" x="254.15" y="259.33" width="26.2" height="7.21" rx="1.09" transform="translate(-78.18 47.76) rotate(-13.7)"/><rect class="cls-4" x="169.4" y="300.24" width="21.96" height="4.66" rx="1.09" transform="translate(-90.04 28.31) rotate(-13.7)"/><rect class="cls-4" x="280.62" y="192.5" width="21.96" height="4.66" rx="1.09" transform="translate(-51.32 27.02) rotate(-9.36)"/><rect class="cls-4" x="149.8" y="217.7" width="82.37" height="6.27" rx="1.46" transform="translate(-70.37 28.49) rotate(-13.7)"/><rect class="cls-4" x="196.63" y="293.48" width="21.96" height="4.66" rx="1.09" transform="translate(-87.66 34.56) rotate(-13.7)"/><rect class="cls-4" x="223.19" y="287.22" width="21.96" height="4.66" rx="1.09" transform="translate(-85.42 40.68) rotate(-13.7)"/><rect class="cls-5" x="172.15" y="314.29" width="21.96" height="4.66" rx="1.09" transform="translate(-93.28 29.36) rotate(-13.7)"/><path class="cls-5" d="M193.12,264.1,165,270.88a2.89,2.89,0,0,1-3.49-2.13l-2.05-8.46-1.87-7.76a2.9,2.9,0,0,1,2.14-3.5l28.1-6.78a2.89,2.89,0,0,1,3.49,2.13l3.92,16.22A2.9,2.9,0,0,1,193.12,264.1Z" transform="translate(-23.5 -23.03)"/><line class="cls-5" x1="134.23" y1="237.83" x2="169.66" y2="228.9"/><path class="cls-8" d="M157.73,262.45a1.6,1.6,0,0,1-.39-3.15l35.43-8.92a1.6,1.6,0,0,1,.78,3.1l-35.43,8.92A1.31,1.31,0,0,1,157.73,262.45Z" transform="translate(-23.5 -23.03)"/><path class="cls-5" d="M181.46,255.75a5.4,5.4,0,1,1-5.89-4.85A5.4,5.4,0,0,1,181.46,255.75Z" transform="translate(-23.5 -23.03)"/><path class="cls-8" d="M176.08,263.26a7,7,0,1,1,.68,0Zm0-10.79a2.36,2.36,0,0,0-.37,0,3.73,3.73,0,1,0,.37,0Z" transform="translate(-23.5 -23.03)"/><path class="cls-4" d="M300.7,288.74a10.37,10.37,0,0,1,1.17-8.34,10.48,10.48,0,1,0,4.2,14.83A10.4,10.4,0,0,1,300.7,288.74Z" transform="translate(-23.5 -23.03)"/><path class="cls-5" d="M311.48,274.84a10.47,10.47,0,1,0,12.93,7.22A10.39,10.39,0,0,0,311.48,274.84Z" transform="translate(-23.5 -23.03)"/><path class="cls-2" d="M318.59,89.72a1.58,1.58,0,0,1,.59-.64l17.35-10.26a1.51,1.51,0,1,1,1.53,2.6L320.71,91.68a1.49,1.49,0,0,1-2.06-.53A1.51,1.51,0,0,1,318.59,89.72Z" transform="translate(-23.5 -23.03)"/><path class="cls-2" d="M306.79,86.94a1.66,1.66,0,0,1,.06-.62l8.36-26.81a1.51,1.51,0,0,1,2.88.89l-8.36,26.82a1.51,1.51,0,0,1-1.89,1A1.53,1.53,0,0,1,306.79,86.94Z" transform="translate(-23.5 -23.03)"/><path class="cls-2" d="M277.86,61.81a1.51,1.51,0,0,1,2.7-1.34l14.29,27a1.51,1.51,0,1,1-2.67,1.41l-14.29-27Z" transform="translate(-23.5 -23.03)"/><path class="cls-2" d="M235.11,418.85a1.34,1.34,0,0,1-.56.49l-15.85,7.28a1.3,1.3,0,0,1-1.09-2.37L233.46,417a1.31,1.31,0,0,1,1.65,1.88Z" transform="translate(-23.5 -23.03)"/><path class="cls-2" d="M245,422.29a1.23,1.23,0,0,1-.11.53l-9.59,22.33a1.3,1.3,0,1,1-2.39-1l9.59-22.33a1.3,1.3,0,0,1,2.5.5Z" transform="translate(-23.5 -23.03)"/><path class="cls-2" d="M267.68,446.51a1.3,1.3,0,0,1-2.44.91l-9.89-24.55a1.31,1.31,0,0,1,2.42-1l9.89,24.55A.19.19,0,0,1,267.68,446.51Z" transform="translate(-23.5 -23.03)"/><path class="cls-5" d="M69.26,263.11l-.72-18.34,31.58,29.36L70.94,305.88l-.72-18.33S43,282.07,25.76,313.77a44.82,44.82,0,0,1,14.39-41.39s9-9.09,29.11-9.27Zm0,0" transform="translate(-23.5 -23.03)"/><path class="cls-2" d="M25.76,315.37h-.21a1.6,1.6,0,0,1-1.34-1.22c-.06-.24-5.51-24.6,14.87-42.95.31-.32,9.12-9,28.52-9.64L67,244.83a1.6,1.6,0,0,1,2.68-1.23L101.21,273a1.6,1.6,0,0,1,.09,2.26L72.12,307a1.6,1.6,0,0,1-1.73.42,1.58,1.58,0,0,1-1-1.44l-.67-17c-5.41-.62-27-1.22-41.51,25.61A1.61,1.61,0,0,1,25.76,315.37Zm44.53-66.79.57,14.47a1.57,1.57,0,0,1-.44,1.16,1.6,1.6,0,0,1-1.14.5c-19.25.17-27.91,8.7-28,8.79a43.58,43.58,0,0,0-14.52,35.41c17.62-27.8,43.49-23,43.77-22.93a1.6,1.6,0,0,1,1.28,1.5L72.39,302l25.48-27.73Z" transform="translate(-23.5 -23.03)"/><path class="cls-5" d="M392.16,325.92l-.51,18.35L362.1,312.86l31.24-29.73-.51,18.35s26.83,7.28,46.12-23.2a44.83,44.83,0,0,1-17.13,40.35s-9.57,8.46-29.66,7.29Zm0,0" transform="translate(-23.5 -23.03)"/><path class="cls-2" d="M391.65,345.86a1.59,1.59,0,0,1-1.17-.5L360.94,314a1.59,1.59,0,0,1,.06-2.25L392.24,282a1.59,1.59,0,0,1,2.7,1.2l-.47,17c5.35,1,26.81,3,43.13-22.77a1.6,1.6,0,0,1,2.93.59c0,.25,3.85,24.91-17.72,41.86-.33.3-9.69,8.37-29.1,7.71l-.47,16.72a1.59,1.59,0,0,1-1,1.45A1.54,1.54,0,0,1,391.65,345.86Zm-27.3-32.94,25.81,27.43.4-14.47a1.63,1.63,0,0,1,.51-1.14,1.6,1.6,0,0,1,1.18-.41c19.11,1.09,28.43-6.82,28.52-6.9a43.49,43.49,0,0,0,16.86-34.37c-19.45,26.57-44.95,20-45.21,20a1.59,1.59,0,0,1-1.18-1.59l.4-14.47Z" transform="translate(-23.5 -23.03)"/></g></svg>