<svg xmlns="http://www.w3.org/2000/svg" xmlns:xlink="http://www.w3.org/1999/xlink" viewBox="0 0 3560.25 3582.81"><defs><style>.cls-1{opacity:0.1;fill:url(#linear-gradient);}.cls-2{fill:url(#linear-gradient-2);}.cls-3,.cls-8{fill:#91b3fa;}.cls-3{opacity:0.21;}.cls-4{fill:url(#linear-gradient-3);}.cls-5{fill:#7d97f4;}.cls-11,.cls-13,.cls-6,.cls-9{fill:#fff;}.cls-7{fill:url(#linear-gradient-4);}.cls-10,.cls-9{opacity:0.51;}.cls-11{opacity:0.7;}.cls-12{fill:url(#linear-gradient-5);}.cls-13{opacity:0.61;}.cls-14{fill:url(#linear-gradient-6);}.cls-15{fill:url(#linear-gradient-7);}.cls-16{fill:url(#linear-gradient-8);}.cls-17{fill:url(#linear-gradient-9);}.cls-18{fill:url(#linear-gradient-10);}.cls-19{fill:url(#linear-gradient-11);}.cls-20{fill:url(#linear-gradient-12);}.cls-21{fill:url(#linear-gradient-13);}.cls-22{fill:url(#linear-gradient-14);}.cls-23{fill:url(#linear-gradient-15);}.cls-24{fill:url(#linear-gradient-16);}.cls-25{fill:url(#linear-gradient-17);}.cls-26{fill:url(#linear-gradient-18);}.cls-27{fill:url(#linear-gradient-19);}</style><linearGradient id="linear-gradient" x1="185.61" y1="1907.75" x2="3592.25" y2="1907.75" gradientUnits="userSpaceOnUse"><stop offset="0" stop-color="#4f52ff"/><stop offset="1" stop-color="#4042e2"/></linearGradient><linearGradient id="linear-gradient-2" x1="1890.16" y1="325.04" x2="-865.1" y2="4600.44" gradientTransform="matrix(-1, 0, 0, 1, 2257.33, 0)" xlink:href="#linear-gradient"/><linearGradient id="linear-gradient-3" x1="-600.43" y1="3454.2" x2="-141.68" y2="2077.95" gradientTransform="matrix(-1, 0, 0, 1, 1155.78, 0)" gradientUnits="userSpaceOnUse"><stop offset="0" stop-color="#09005d"/><stop offset="1" stop-color="#1a0f91"/></linearGradient><linearGradient id="linear-gradient-4" x1="466.94" y1="3371.95" x2="-1575.7" y2="3868.81" gradientTransform="matrix(1, 0, 0, -1, 1962.43, 7167.27)" xlink:href="#linear-gradient-3"/><linearGradient id="linear-gradient-5" x1="4181.67" y1="436.88" x2="3587.22" y2="1018.4" gradientUnits="userSpaceOnUse"><stop offset="0" stop-color="#ff928e"/><stop offset="1" stop-color="#fe7062"/></linearGradient><linearGradient id="linear-gradient-6" x1="1987.11" y1="1892.41" x2="2147.65" y2="2060.08" gradientTransform="matrix(-1, 0, 0, 1, 2478.46, 0)" xlink:href="#linear-gradient-3"/><linearGradient id="linear-gradient-7" x1="2200.07" y1="2313.26" x2="2503.73" y2="2536.13" gradientTransform="matrix(-1, 0, 0, 1, 2478.46, 0)" xlink:href="#linear-gradient-3"/><linearGradient id="linear-gradient-8" x1="1709.48" y1="1489.6" x2="1503.33" y2="1734.75" gradientTransform="matrix(-1, 0, 0, 1, 2478.46, 0)" gradientUnits="userSpaceOnUse"><stop offset="0" stop-color="#febbba"/><stop offset="1" stop-color="#ff928e"/></linearGradient><linearGradient id="linear-gradient-9" x1="1791.15" y1="886.2" x2="1170.82" y2="1532.37" xlink:href="#linear-gradient-5"/><linearGradient id="linear-gradient-10" x1="1469.1" y1="1712.65" x2="1881.16" y2="1148.93" xlink:href="#linear-gradient-8"/><linearGradient id="linear-gradient-11" x1="1217.03" y1="1245.5" x2="1232.21" y2="1108.89" xlink:href="#linear-gradient-8"/><linearGradient id="linear-gradient-12" x1="1297.99" y1="1126.34" x2="1231.09" y2="905.69" xlink:href="#linear-gradient-8"/><linearGradient id="linear-gradient-13" x1="1237.62" y1="721.18" x2="1299.82" y2="1075.95" gradientTransform="matrix(-1, 0, 0, 1, 2478.46, 0)" xlink:href="#linear-gradient-3"/><linearGradient id="linear-gradient-14" x1="1228.69" y1="1147.35" x2="1161.79" y2="926.7" xlink:href="#linear-gradient-8"/><linearGradient id="linear-gradient-15" x1="1775.51" y1="1585.11" x2="2089.07" y2="1585.11" gradientTransform="matrix(-1, 0, 0, 1, 2478.46, 0)" xlink:href="#linear-gradient-3"/><linearGradient id="linear-gradient-16" x1="1813.57" y1="1722.18" x2="1562.85" y2="1790.89" gradientTransform="matrix(-1, 0, 0, 1, 2478.46, 0)" xlink:href="#linear-gradient-3"/><linearGradient id="linear-gradient-17" x1="1129.01" y1="538.86" x2="1032.09" y2="2031.44" gradientUnits="userSpaceOnUse"><stop offset="0" stop-color="#e1473d"/><stop offset="1" stop-color="#e9605a"/></linearGradient><linearGradient id="linear-gradient-18" x1="1305.46" y1="550.32" x2="1208.54" y2="2042.9" xlink:href="#linear-gradient-17"/><linearGradient id="linear-gradient-19" x1="1436.75" y1="558.84" x2="1339.83" y2="2051.43" xlink:href="#linear-gradient-17"/></defs><title>security</title><g id="Illustration"><path class="cls-1" d="M3449.46,2520.36C3119,3310,2238.53,3752.33,1475,3633c-124.23-19.41-464.83-77.25-766.39-350.11C128.12,2757.62,4,1717.52,472.25,984.54c340.83-533.49,951.8-835.9,1532.34-820.77,125,3.26,604.28,23.34,1025.44,375.7,61.86,51.75,198.3,174.74,321.27,369.85C3640.05,1367.46,3664.86,2005.76,3449.46,2520.36Z" transform="translate(-80.71 -69.47)"/><path class="cls-2" d="M100.33,2373c56.43-240.86,241-429.94,475.88-487.76,161.51-39.76,316.47-18.43,447.44,46,43.44,21.37,95.06-2.82,107.1-50.65,115.78-460.14,523.25-800.07,1008.19-800.07,575,0,1041.17,478,1041.17,1067.54,0,15.65-.31,37-.58,57.54,2,44.09,20.81,62.81,48.84,67.51,225.29,24,402.34,214.47,412.17,449.35,11.28,269.69-202.8,493.13-466.07,493.13H739.25C322.37,3215.6-4,2818.44,100.33,2373Z" transform="translate(-80.71 -69.47)"/><path class="cls-3" d="M288.93,2463.29c50.39-215.06,215.15-383.88,424.91-435.51,144.2-35.5,282.56-16.45,399.5,41.07,38.78,19.07,84.88-2.52,95.62-45.23,103.38-410.84,467.2-714.36,900.18-714.36,513.42,0,929.63,426.75,929.63,953.17,0,14-.27,33.06-.51,51.38,1.82,39.37,18.58,56.08,43.6,60.28,201.16,21.47,359.24,191.5,368,401.21,10.07,240.8-181.08,440.3-416.14,440.3H859.4C487.19,3215.6,195.76,2861,288.93,2463.29Z" transform="translate(-80.71 -69.47)"/><path class="cls-4" d="M571.68,3504.13A36,36,0,0,0,607.6,3540H2550a36,36,0,0,0,35.92-35.88l16.16-1116.24c0-19.73-23.25-58.26-65.86-55.37L637.89,2283.4A90.52,90.52,0,0,0,545,2376Z" transform="translate(-80.71 -69.47)"/><path class="cls-5" d="M607.14,3469.7a34.08,34.08,0,0,0,34,34h1862a34.08,34.08,0,0,0,34-34l15.25-1013.33c-1.79-61-55.25-82.89-87.66-81.6L645.35,2326a63.62,63.62,0,0,0-65.26,65.1Z" transform="translate(-80.71 -69.47)"/><path class="cls-6" d="M2517,2988.3H2517a5,5,0,0,1-4.93-5.06l1.21-82.18a5,5,0,0,1,5-4.9h.05a5,5,0,0,1,4.93,5.05l-1.2,82.18A5,5,0,0,1,2517,2988.3Z" transform="translate(-80.71 -69.47)"/><path class="cls-6" d="M2520,2786.92h-.07a5,5,0,0,1-4.91-5.06l4.62-314.75c-.09-18.69-5.76-33.62-16.87-44.26-20.73-19.87-53.65-18.85-55-18.79l-581.5-15.59a5,5,0,0,1-4.85-5.11,4.77,4.77,0,0,1,5.11-4.84l581.17,15.59c3.61-.21,38.66-.82,62,21.55,13.13,12.58,19.84,29.91,19.94,51.5L2524.94,2782A5,5,0,0,1,2520,2786.92Z" transform="translate(-80.71 -69.47)"/><rect class="cls-7" x="414.11" y="3534.6" width="2289.99" height="98.08" rx="7.23" transform="translate(3037.49 7097.8) rotate(-180)"/><path class="cls-8" d="M1415,3454.25H698.05a47.86,47.86,0,0,1-47.86-47.86V2470.58a47.85,47.85,0,0,1,49.69-47.82l716.92,27.43a47.86,47.86,0,0,1,46,47.83v908.37A47.86,47.86,0,0,1,1415,3454.25Z" transform="translate(-80.71 -69.47)"/><rect class="cls-9" x="709.96" y="2720.39" width="488.53" height="63.11" rx="6.82"/><rect class="cls-9" x="710.92" y="2821.17" width="488.53" height="63.11" rx="6.82"/><rect class="cls-9" x="713.78" y="2924.07" width="488.53" height="63.11" rx="6.82"/><rect class="cls-9" x="714.74" y="3024.85" width="488.53" height="63.11" rx="6.82"/><rect class="cls-9" x="1537.58" y="2720.31" width="702.36" height="63.11" rx="6.82"/><rect class="cls-9" x="1539.75" y="2821.17" width="702.36" height="63.11" rx="6.82"/><rect class="cls-9" x="1539.75" y="2924.07" width="416.18" height="63.11" rx="6.82"/><g class="cls-10"><path class="cls-6" d="M1991.14,2554.57h-10.7a9.62,9.62,0,0,1-9.61-9.62v-36.57a23.71,23.71,0,0,0-23.71-23.7h-66.29a23.7,23.7,0,0,0-23.7,23.7V2545a9.62,9.62,0,0,1-9.62,9.62h-10.7a9.62,9.62,0,0,1-9.61-9.62v-36.57a53.63,53.63,0,0,1,53.63-53.63h66.29a53.63,53.63,0,0,1,53.64,53.63V2545A9.62,9.62,0,0,1,1991.14,2554.57Z" transform="translate(-80.71 -69.47)"/><path class="cls-6" d="M2004.4,2563.2H1823.55a20.07,20.07,0,0,0-20.06,20.07v138.79a20.07,20.07,0,0,0,20.06,20.07H2004.4a20.07,20.07,0,0,0,20.07-20.07V2583.27A20.07,20.07,0,0,0,2004.4,2563.2Zm-64.55,134.15a7.43,7.43,0,0,1-7.22,9.17h-37.3a7.44,7.44,0,0,1-7.23-9.17l8.71-36.23a33.52,33.52,0,1,1,34.34,0Z" transform="translate(-80.71 -69.47)"/></g><path class="cls-8" d="M2517.58,934.22a4.26,4.26,0,0,1-2.09-.54,4.31,4.31,0,0,1-1.67-5.86q4.16-7.49,8.07-15.06a4.3,4.3,0,1,1,7.65,4q-4,7.69-8.19,15.3A4.32,4.32,0,0,1,2517.58,934.22Z" transform="translate(-80.71 -69.47)"/><path class="cls-8" d="M2013.65,1230.83c-2.55,0-5.09,0-7.64,0a4.31,4.31,0,0,1,.06-8.62h.06c11.15.16,22.4,0,33.52-.53a4.38,4.38,0,0,1,4.5,4.11,4.3,4.3,0,0,1-4.11,4.49C2031.29,1230.63,2022.41,1230.83,2013.65,1230.83Zm-62.35-3.36a3.71,3.71,0,0,1-.47,0c-11.25-1.22-22.59-2.78-33.71-4.64a4.31,4.31,0,0,1,1.43-8.5c11,1.84,22.12,3.38,33.21,4.58a4.31,4.31,0,0,1-.46,8.59Zm143.19-2.31a4.31,4.31,0,0,1-.6-8.57c11-1.56,22.15-3.46,33.05-5.65a4.3,4.3,0,0,1,1.7,8.44c-11.07,2.23-22.36,4.16-33.55,5.74A4,4,0,0,1,2094.49,1225.16Zm-230.28-13.92a4.24,4.24,0,0,1-1.11-.15c-10.92-2.92-21.89-6.19-32.6-9.74a4.31,4.31,0,1,1,2.71-8.18c10.55,3.49,21.36,6.72,32.11,9.6a4.31,4.31,0,0,1-1.11,8.47Zm316.8-5.16a4.31,4.31,0,0,1-1.24-8.43c10.67-3.23,21.36-6.82,31.79-10.66a4.3,4.3,0,1,1,3,8.08c-10.58,3.9-21.43,7.55-32.27,10.83A4.45,4.45,0,0,1,2181,1206.08Zm-400.38-24.22a4.24,4.24,0,0,1-1.73-.37c-10.36-4.56-20.69-9.49-30.72-14.63a4.31,4.31,0,0,1,3.94-7.67c9.88,5.07,20.05,9.92,30.25,14.42a4.31,4.31,0,0,1-1.74,8.25Zm482.94-7.95a4.31,4.31,0,0,1-1.87-8.19c10-4.82,20-10,29.77-15.44a4.31,4.31,0,0,1,4.19,7.53c-9.88,5.5-20,10.78-30.23,15.68A4.24,4.24,0,0,1,2263.57,1173.91Zm-561-33.94a4.31,4.31,0,0,1-2.32-.68c-9.51-6.1-19-12.56-28.08-19.2a4.31,4.31,0,1,1,5.07-7c9,6.55,18.29,12.91,27.66,18.92a4.31,4.31,0,0,1-2.33,7.93Zm637.58-10.59a4.31,4.31,0,0,1-2.46-7.85c9.17-6.32,18.27-13,27.05-19.85a4.31,4.31,0,1,1,5.3,6.8c-8.91,6.94-18.15,13.72-27.45,20.14A4.33,4.33,0,0,1,2340.18,1129.38ZM1632,1086.56a4.32,4.32,0,0,1-2.86-1.08c-8.43-7.47-16.78-15.3-24.81-23.29a4.31,4.31,0,1,1,6.08-6.11c7.91,7.87,16.14,15.59,24.45,22.94a4.31,4.31,0,0,1-2.86,7.54Zm777.11-12.93a4.31,4.31,0,0,1-3-7.45c8.1-7.64,16.08-15.62,23.71-23.7a4.31,4.31,0,0,1,6.27,5.92c-7.75,8.2-15.84,16.29-24.07,24A4.33,4.33,0,0,1,2409.09,1073.63ZM1570.29,1023a4.33,4.33,0,0,1-3.32-1.55c-7.21-8.66-14.28-17.67-21-26.77a4.31,4.31,0,1,1,6.93-5.12c6.62,9,13.58,17.84,20.7,26.38a4.31,4.31,0,0,1-.56,6.07A4.27,4.27,0,0,1,1570.29,1023Zm898.43-14.84a4.26,4.26,0,0,1-2.65-.91,4.31,4.31,0,0,1-.75-6c6.86-8.82,13.53-17.91,19.81-27a4.31,4.31,0,1,1,7.1,4.88c-6.38,9.28-13.14,18.52-20.11,27.46A4.3,4.3,0,0,1,2468.72,1008.11ZM1519,950.73a4.31,4.31,0,0,1-3.7-2.09c-5.84-9.72-11.44-19.71-16.65-29.68a4.31,4.31,0,0,1,7.64-4c5.13,9.83,10.65,19.66,16.4,29.24a4.29,4.29,0,0,1-1.48,5.91A4.24,4.24,0,0,1,1519,950.73Zm-39.6-79.25a4.31,4.31,0,0,1-4-2.69c-4.27-10.5-8.26-21.23-11.87-31.9a4.31,4.31,0,1,1,8.16-2.76c3.56,10.51,7.49,21.08,11.69,31.42a4.3,4.3,0,0,1-2.37,5.61A4.21,4.21,0,0,1,1479.36,871.48Z" transform="translate(-80.71 -69.47)"/><path class="cls-8" d="M1452.41,786.83a4.3,4.3,0,0,1-4.19-3.32q-2-8.46-3.72-17a4.31,4.31,0,0,1,8.44-1.72q1.71,8.37,3.66,16.7a4.3,4.3,0,0,1-3.21,5.18A4.75,4.75,0,0,1,1452.41,786.83Z" transform="translate(-80.71 -69.47)"/><path class="cls-8" d="M1525.44,347.53a4.3,4.3,0,0,1-3.63-6.6q4.61-7.32,9.46-14.54a4.31,4.31,0,1,1,7.15,4.8q-4.79,7.11-9.33,14.33A4.29,4.29,0,0,1,1525.44,347.53Z" transform="translate(-80.71 -69.47)"/><path class="cls-8" d="M2566.59,491.84a4.32,4.32,0,0,1-4.14-3.09c-3.29-11.23-7-22.5-10.95-33.51a4.31,4.31,0,1,1,8.1-2.92c4,11.16,7.78,22.6,11.12,34a4.3,4.3,0,0,1-2.92,5.35A4.21,4.21,0,0,1,2566.59,491.84Zm-33.38-86.95a4.31,4.31,0,0,1-3.89-2.44c-5.08-10.57-10.55-21.09-16.25-31.28a4.31,4.31,0,0,1,7.52-4.21c5.79,10.34,11.34,21,16.5,31.76a4.32,4.32,0,0,1-2,5.75A4.27,4.27,0,0,1,2533.21,404.89Zm-47.05-80.39a4.29,4.29,0,0,1-3.53-1.84c-6.7-9.57-13.8-19.07-21.09-28.24a4.31,4.31,0,0,1,6.74-5.37c7.4,9.31,14.61,18.95,21.41,28.67a4.31,4.31,0,0,1-1.06,6A4.25,4.25,0,0,1,2486.16,324.5Zm-916.75-37.6a4.27,4.27,0,0,1-2.75-1,4.31,4.31,0,0,1-.56-6.07c7.56-9.1,15.52-18.12,23.68-26.81a4.31,4.31,0,1,1,6.28,5.9c-8,8.56-15.89,17.45-23.33,26.42A4.33,4.33,0,0,1,1569.41,286.9Zm857.39-34.18a4.32,4.32,0,0,1-3.1-1.31c-8.11-8.36-16.62-16.61-25.29-24.52a4.31,4.31,0,0,1,5.8-6.37c8.8,8,17.44,16.4,25.68,24.89a4.3,4.3,0,0,1-3.09,7.31Zm-792.35-32.49a4.31,4.31,0,0,1-2.84-7.55c9-7.83,18.27-15.47,27.66-22.72a4.31,4.31,0,1,1,5.27,6.82c-9.26,7.14-18.43,14.67-27.26,22.39A4.3,4.3,0,0,1,1634.45,220.23Zm722.34-28.89a4.3,4.3,0,0,1-2.56-.85c-9.39-7-19.12-13.75-28.92-20.13a4.31,4.31,0,0,1,4.71-7.21c9.94,6.47,19.82,13.34,29.35,20.42a4.31,4.31,0,0,1-2.58,7.77Zm-647.48-26.58a4.32,4.32,0,0,1-2.29-8c10.08-6.27,20.5-12.32,31-18a4.31,4.31,0,1,1,4.1,7.58c-10.31,5.57-20.58,11.52-30.5,17.7A4.23,4.23,0,0,1,1709.31,164.76Zm568.48-22.69a4.21,4.21,0,0,1-2-.48c-10.39-5.35-21.08-10.45-31.8-15.17a4.31,4.31,0,1,1,3.47-7.88c10.87,4.78,21.73,10,32.28,15.4a4.3,4.3,0,0,1-2,8.13Zm-485.66-20a4.31,4.31,0,0,1-1.66-8.28c10.94-4.55,22.2-8.83,33.46-12.71a4.31,4.31,0,0,1,2.81,8.15c-11.09,3.82-22.18,8-33,12.52A4.36,4.36,0,0,1,1792.13,122.1Zm399.71-15.85a4.49,4.49,0,0,1-1.33-.21c-11.11-3.6-22.5-6.91-33.84-9.83a4.31,4.31,0,0,1,2.15-8.35c11.51,3,23.07,6.33,34.35,10a4.3,4.3,0,0,1-1.33,8.4Zm-311.09-12.8a4.31,4.31,0,0,1-1-8.5c11.58-2.73,23.38-5.13,35.06-7.12a4.31,4.31,0,1,1,1.46,8.49c-11.51,2-23.13,4.33-34.55,7A4.17,4.17,0,0,1,1880.75,93.45Zm220.49-8.69a3.67,3.67,0,0,1-.66-.05c-11.57-1.77-23.34-3.21-35-4.27a4.31,4.31,0,0,1,.78-8.58c11.83,1.08,23.78,2.54,35.51,4.34a4.3,4.3,0,0,1-.64,8.56Zm-128.4-5.28a4.31,4.31,0,0,1-.3-8.6c11.83-.84,23.86-1.31,35.75-1.41h0a4.31,4.31,0,0,1,0,8.62c-11.72.1-23.57.56-35.22,1.38Z" transform="translate(-80.71 -69.47)"/><path class="cls-8" d="M2583,565.19a4.32,4.32,0,0,1-4.26-3.65q-1.3-8.43-2.88-16.85a4.29,4.29,0,0,1,3.44-5,4.34,4.34,0,0,1,5,3.44q1.59,8.53,2.93,17.1a4.32,4.32,0,0,1-3.59,4.93A5.16,5.16,0,0,1,2583,565.19Z" transform="translate(-80.71 -69.47)"/><path class="cls-8" d="M2456.08,637.27a6.92,6.92,0,0,0-4.14-6.89l-77.22-33.54a367.08,367.08,0,0,0-36.77-113l42.61-72.55a6.91,6.91,0,0,0-.71-8l-65.64-76.75a6.94,6.94,0,0,0-7.8-1.94l-78.28,30.87a366.61,366.61,0,0,0-105.93-53.83L2101,220.15a6.91,6.91,0,0,0-6.15-5.16l-100.69-7.84a6.91,6.91,0,0,0-6.88,4.14l-33.55,77.22a367.08,367.08,0,0,0-113,36.77l-72.55-42.61a6.91,6.91,0,0,0-8,.71L1683.45,349a6.88,6.88,0,0,0-1.94,7.79l30.86,78.28A366.86,366.86,0,0,0,1658.54,541l-81.49,21.18a6.93,6.93,0,0,0-5.15,6.16l-7.85,100.69a6.92,6.92,0,0,0,4.14,6.88l77.23,33.55a366.63,366.63,0,0,0,36.77,113L1639.57,895a6.92,6.92,0,0,0,.71,8l65.65,76.75a6.9,6.9,0,0,0,7.79,1.93L1792,950.86a366.92,366.92,0,0,0,105.94,53.83l21.18,81.48a6.91,6.91,0,0,0,6.16,5.16l100.68,7.85a7,7,0,0,0,6.89-4.14l33.55-77.23a366.58,366.58,0,0,0,113-36.77l72.55,42.62a6.92,6.92,0,0,0,8-.71l76.75-65.65a6.92,6.92,0,0,0,1.94-7.79l-30.87-78.28a366.92,366.92,0,0,0,53.83-105.94l81.49-21.18a6.91,6.91,0,0,0,5.16-6.16Z" transform="translate(-80.71 -69.47)"/><path class="cls-11" d="M2009.86,749.32a96.39,96.39,0,1,1,16.43-1.4A97.21,97.21,0,0,1,2009.86,749.32Zm.38-179.39a84.42,84.42,0,0,0-14.21,1.21,83.22,83.22,0,1,0,62.11,14.1h0A82.62,82.62,0,0,0,2010.24,569.93Z" transform="translate(-80.71 -69.47)"/><path class="cls-11" d="M2008.32,903.34q-9.87,0-19.83-.77a250.19,250.19,0,0,1-230.74-249q0-9.89.77-19.84A250.16,250.16,0,0,1,2198,490.56a251.7,251.7,0,0,1,30.16,43.9l-11.37,6.14A238.32,238.32,0,0,0,2188.19,499,237.23,237.23,0,0,0,1771.4,634.75q-.74,9.43-.73,18.81a237.27,237.27,0,0,0,462.17,75.15l12.26,4.11a250.3,250.3,0,0,1-236.78,170.52Z" transform="translate(-80.71 -69.47)"/><path class="cls-8" d="M3003.48,1075.63a4.25,4.25,0,0,1-2.19-.6,4.3,4.3,0,0,1-1.51-5.9c2.89-4.89,5.66-9.88,8.22-14.85a4.31,4.31,0,1,1,7.66,4c-2.64,5.11-5.49,10.25-8.47,15.28A4.3,4.3,0,0,1,3003.48,1075.63Z" transform="translate(-80.71 -69.47)"/><path class="cls-8" d="M2725.45,1219.81h-.34a304.83,304.83,0,0,1-34.89-4.8,4.31,4.31,0,0,1,1.67-8.46,294.36,294.36,0,0,0,33.89,4.67,4.31,4.31,0,0,1-.33,8.6Zm56.34-.91a4.31,4.31,0,0,1-.47-8.59,295.71,295.71,0,0,0,33.72-5.78,4.3,4.3,0,1,1,1.95,8.38,301.89,301.89,0,0,1-34.72,6A3.87,3.87,0,0,1,2781.79,1218.9Zm-144.74-20a4.4,4.4,0,0,1-1.62-.31,299.31,299.31,0,0,1-31.79-15.16,4.31,4.31,0,1,1,4.16-7.54,292.52,292.52,0,0,0,30.87,14.71,4.31,4.31,0,0,1-1.62,8.3Zm232.39-3.86a4.31,4.31,0,0,1-1.76-8.24,290.24,290.24,0,0,0,30.37-15.78,4.31,4.31,0,0,1,4.41,7.4,300.51,300.51,0,0,1-31.26,16.24A4.23,4.23,0,0,1,2869.44,1195.08Zm-310.22-42.88a4.32,4.32,0,0,1-2.76-1,304,304,0,0,1-25.66-24.11,4.31,4.31,0,1,1,6.25-5.93,293,293,0,0,0,24.93,23.42,4.31,4.31,0,0,1-2.76,7.62Zm386.46-6.5a4.31,4.31,0,0,1-2.87-7.52l2.53-2.28A298.71,298.71,0,0,0,2967,1114a4.3,4.3,0,0,1,6.43,5.72,300.23,300.23,0,0,1-22.28,22.57l-2.6,2.35A4.33,4.33,0,0,1,2945.68,1145.7Zm-446.52-61.62a4.29,4.29,0,0,1-3.63-2,299.09,299.09,0,0,1-17.22-30.73,4.31,4.31,0,1,1,7.75-3.76,293.69,293.69,0,0,0,16.72,29.85,4.28,4.28,0,0,1-1.3,5.94A4.21,4.21,0,0,1,2499.16,1084.08Z" transform="translate(-80.71 -69.47)"/><path class="cls-8" d="M2462.52,1000.78a4.31,4.31,0,0,1-4.16-3.21c-1.49-5.6-2.82-11.32-4-17a4.31,4.31,0,0,1,8.44-1.72c1.13,5.52,2.43,11.08,3.87,16.52a4.31,4.31,0,0,1-3.06,5.27A4.69,4.69,0,0,1,2462.52,1000.78Z" transform="translate(-80.71 -69.47)"/><path class="cls-8" d="M2498,767a4.31,4.31,0,0,1-3.63-6.61c3.09-4.91,6.37-9.79,9.74-14.51a4.31,4.31,0,0,1,7,5c-3.28,4.58-6.46,9.32-9.47,14.1A4.28,4.28,0,0,1,2498,767Z" transform="translate(-80.71 -69.47)"/><path class="cls-8" d="M3021.29,808.89a4.31,4.31,0,0,1-4-2.62,288.41,288.41,0,0,0-14.94-30.16,4.31,4.31,0,1,1,7.49-4.27,298.69,298.69,0,0,1,15.38,31.06,4.31,4.31,0,0,1-2.28,5.65A4.36,4.36,0,0,1,3021.29,808.89Zm-47-76a4.3,4.3,0,0,1-3.28-1.51q-3.3-3.89-6.75-7.67c-5.26-5.76-10.8-11.37-16.49-16.69a4.31,4.31,0,1,1,5.89-6.29c5.84,5.47,11.55,11.25,17,17.18q3.55,3.89,7,7.88a4.33,4.33,0,0,1-.48,6.08A4.38,4.38,0,0,1,2974.29,732.89ZM2543.94,710.8a4.31,4.31,0,0,1-3-7.43q2.63-2.49,5.29-4.94c6.73-6.14,13.82-12,21.06-17.54a4.3,4.3,0,1,1,5.21,6.85c-7,5.35-13.92,11.08-20.46,17q-2.61,2.38-5.15,4.82A4.34,4.34,0,0,1,2543.94,710.8Zm362.91-36.54a4.31,4.31,0,0,1-2.3-.66,292.07,292.07,0,0,0-29.43-16.3,4.3,4.3,0,1,1,3.73-7.76,300,300,0,0,1,30.3,16.77,4.31,4.31,0,0,1-2.3,8ZM2617,659.39a4.31,4.31,0,0,1-1.92-8.17,299.68,299.68,0,0,1,31.87-13.6,4.31,4.31,0,1,1,2.92,8.11,289.63,289.63,0,0,0-31,13.21A4.38,4.38,0,0,1,2617,659.39ZM2825,638.53a4.22,4.22,0,0,1-1.11-.14,293.68,293.68,0,0,0-33-6.75,4.31,4.31,0,0,1-3.65-4.88,4.26,4.26,0,0,1,4.88-3.65,304,304,0,0,1,34,6.95,4.31,4.31,0,0,1-1.1,8.47Zm-122.83-6.3a4.31,4.31,0,0,1-.67-8.56,303.13,303.13,0,0,1,34.48-3.44,4.31,4.31,0,0,1,.36,8.61,292.59,292.59,0,0,0-33.49,3.34A5.31,5.31,0,0,1,2702.16,632.23Z" transform="translate(-80.71 -69.47)"/><path class="cls-8" d="M3041.24,878.8a4.31,4.31,0,0,1-4.26-3.65c-.86-5.56-1.91-11.17-3.09-16.68a4.31,4.31,0,1,1,8.42-1.82c1.22,5.67,2.29,11.45,3.19,17.18a4.31,4.31,0,0,1-3.6,4.92A5,5,0,0,1,3041.24,878.8Z" transform="translate(-80.71 -69.47)"/><path class="cls-8" d="M2976.06,913.73a3.57,3.57,0,0,0-2.13-3.54L2934.26,893a188.36,188.36,0,0,0-18.88-58l21.89-37.27a3.56,3.56,0,0,0-.37-4.11l-33.72-39.42a3.56,3.56,0,0,0-4-1L2859,769a188.11,188.11,0,0,0-54.42-27.65l-10.88-41.86a3.55,3.55,0,0,0-3.16-2.65l-51.73-4a3.54,3.54,0,0,0-3.53,2.12L2718,734.58A188.62,188.62,0,0,0,2660,753.47l-37.27-21.89a3.56,3.56,0,0,0-4.11.36l-39.42,33.73a3.54,3.54,0,0,0-1,4L2594,809.88a188.36,188.36,0,0,0-27.65,54.42l-41.86,10.88a3.55,3.55,0,0,0-2.65,3.16l-4,51.72a3.57,3.57,0,0,0,2.13,3.54l39.67,17.23a188.36,188.36,0,0,0,18.88,58l-21.89,37.27a3.56,3.56,0,0,0,.37,4.11l33.72,39.43a3.54,3.54,0,0,0,4,1l40.21-15.85a188.61,188.61,0,0,0,54.42,27.65l10.88,41.86a3.56,3.56,0,0,0,3.17,2.65l51.72,4a3.56,3.56,0,0,0,3.53-2.13l17.23-39.67a188.35,188.35,0,0,0,58-18.89l37.27,21.89a3.56,3.56,0,0,0,4.11-.36l39.42-33.72a3.58,3.58,0,0,0,1-4l-15.86-40.21a188.43,188.43,0,0,0,27.65-54.41l41.86-10.89a3.55,3.55,0,0,0,2.65-3.16Z" transform="translate(-80.71 -69.47)"/><path class="cls-11" d="M2746.84,974.44a52.74,52.74,0,1,1,9-.77A53.35,53.35,0,0,1,2746.84,974.44Zm.16-92.13a39.55,39.55,0,1,0,22.83,7.26h0A39.37,39.37,0,0,0,2747,882.31Z" transform="translate(-80.71 -69.47)"/><path class="cls-11" d="M2746.06,1053.55c-3.46,0-6.95-.13-10.44-.4a131.68,131.68,0,0,1-75.34-231.28c55.15-47.2,138.42-40.7,185.6,14.46l1.1,1.3a132.49,132.49,0,0,1,13.57,19.63.56.56,0,0,0,0,.08l.17.31.3.54.17.3.51.94-11.37,6.14a119.35,119.35,0,0,0-14.32-20.84h0a118.69,118.69,0,1,0,22.34,115l12.26,4.1a131.7,131.7,0,0,1-124.6,89.74Z" transform="translate(-80.71 -69.47)"/><path class="cls-12" d="M1907.21,1515.73a51.05,51.05,0,0,1,39.47-13.59c155,13.94,444.34-60.74,633.41-254.19,13.12-13.44,37-5.84,52.1,5.4C2842.46,1410.5,3191,1443.05,3312,1449.7a51.05,51.05,0,0,1,47.92,45.73C3470,2558.17,2778,2943.27,2634.5,3011.25a51.17,51.17,0,0,1-48.89-2.83c-715.25-445.51-684.66-1024.9-694.55-1454.19A51.13,51.13,0,0,1,1907.21,1515.73Z" transform="translate(-80.71 -69.47)"/><path class="cls-13" d="M2615.14,2934.05a17,17,0,0,1-9.17-2.67c-274.21-175.29-452.93-384.85-546.37-640.65-83.45-228.46-87.53-461.1-91.14-666.35L1968,1597a16.71,16.71,0,0,1,4.83-12.13,16.92,16.92,0,0,1,12.17-5.09h0c169.82,0,424.7-75,611.65-242.5a16.94,16.94,0,0,1,20.67-1.49c205.41,136.29,498.41,176,654.79,187.51a16.87,16.87,0,0,1,15.61,15.42c36.35,414.67-49.9,765.31-256.35,1042.2-154.19,206.79-337,314.54-408.48,351.27h0A16.91,16.91,0,0,1,2615.14,2934.05Zm4.54-8.05,1.59,3.1-1.59-3.1c71-36.5,252.76-143.6,406.08-349.23,205.4-275.48,291.19-624.52,255-1037.43a9.94,9.94,0,0,0-9.19-9.09c-157.06-11.58-451.4-51.48-658.13-188.65a10,10,0,0,0-12.18.88c-188.31,168.74-445.15,244.27-616.14,244.27h0a10.13,10.13,0,0,0-7.35,3,9.85,9.85,0,0,0-2.83,7.12l.49,27.37c3.59,204.71,7.67,436.72,90.72,664.09,92.9,254.32,270.71,462.74,543.58,637.17A10,10,0,0,0,2619.68,2926Z" transform="translate(-80.71 -69.47)"/><path class="cls-13" d="M2865.16,1916.9h-32.34a29.08,29.08,0,0,1-29.08-29.08V1777.26a71.65,71.65,0,0,0-71.66-71.65H2531.67a71.65,71.65,0,0,0-71.65,71.65v110.56a29.08,29.08,0,0,1-29.08,29.08h-32.35a29.08,29.08,0,0,1-29.08-29.08V1777.26a162.16,162.16,0,0,1,162.16-162.15h200.41a162.16,162.16,0,0,1,162.16,162.15v110.56A29.08,29.08,0,0,1,2865.16,1916.9Z" transform="translate(-80.71 -69.47)"/><path class="cls-13" d="M2905.25,1943H2358.5a60.66,60.66,0,0,0-60.66,60.66v419.61a60.67,60.67,0,0,0,60.66,60.67h546.75a60.67,60.67,0,0,0,60.67-60.67V2003.65A60.66,60.66,0,0,0,2905.25,1943ZM2710.1,2348.54a22.47,22.47,0,0,1-21.85,27.73H2575.5a22.48,22.48,0,0,1-21.85-27.73L2580,2239a101.27,101.27,0,0,1-49.28-92.53c2.68-50.86,43.89-92.49,94.72-95.65A101.35,101.35,0,0,1,2683.8,2239Z" transform="translate(-80.71 -69.47)"/><path class="cls-14" d="M536.09,1805.82s44.28,2.34,49.71,93.45c0,0-102.68,92-241.39,114-10.41,1.65,14.56-71.08,18.32-80.93C380.59,1885.42,436.84,1855.23,536.09,1805.82Z" transform="translate(-80.71 -69.47)"/><path class="cls-5" d="M1034.8,1698.7H941.35S654.54,1381.94,466.43,1350c0,0-130.95,167.15,7,479.47,11.1,25.12,42.13,36.28,65.27,21.5a37.35,37.35,0,0,0,14.92-17.78L542.5,1566.5s244.65,214,287.17,255.27S1088.36,1837.9,1034.8,1698.7Z" transform="translate(-80.71 -69.47)"/><path class="cls-15" d="M131.37,2363.75c39.16-34.32,101.55-72.82,191.63-83.86l30.46,18.63s-19.43,28.65-54.91,58.92c-32.62,18.94-83,44.6-124.73,50.16C133.23,2413,127.25,2388.48,131.37,2363.75Z" transform="translate(-80.71 -69.47)"/><path class="cls-8" d="M362.73,1932.29c24.12,7.81,34.73,42,95.95,19.39a542.12,542.12,0,0,0,125.9-66.33c.5,4.4.93,9,1.22,13.92,0,0-108.27,103-247,124.89a13.8,13.8,0,0,1-14.91-18.6A348.09,348.09,0,0,1,362.73,1932.29Z" transform="translate(-80.71 -69.47)"/><path class="cls-8" d="M101.87,2393.05a321.9,321.9,0,0,1,29.5-29.3c-4.12,24.73,1.86,49.25,42.45,43.85,41.75-5.56,92.11-31.22,124.73-50.16-40.88,34.86-103.07,71.86-181.57,69.69C99.54,2426.65,90.35,2406.14,101.87,2393.05Z" transform="translate(-80.71 -69.47)"/><path class="cls-5" d="M1031.38,1766.31l-437.6,4.74s-249.9,206.76-295.23,522c0,0-7.53,23.19,37.65,27.16,0,0,151.08-98.68,249.6-273.15,120.8-213.92,360.11-117.63,360.11-117.63,115,25.38,206.48,15.94,273.45-87.12Z" transform="translate(-80.71 -69.47)"/><path class="cls-16" d="M1021.05,1413.8s-47.11,236.09-277.93,329.49L661,1733.61l-19.37,30.89,192.59,6.14s164.63-65.21,251.85-242.88C1089,1521.89,1137,1422.72,1021.05,1413.8Z" transform="translate(-80.71 -69.47)"/><path class="cls-17" d="M995.8,1762.45s53.57-145.62,65.09-287.11c0,0-39.19-33.68-63.69-48.22a17.71,17.71,0,0,1-6.92-23c18-37.31,126.93-183.8,135.08-185.84,44.35-11.07,226.21-97.54,354.3,77.66,55,75.19-10.91,306.66-260.3,546.36C1139.11,1855.41,1064.09,1832.29,995.8,1762.45Z" transform="translate(-80.71 -69.47)"/><path class="cls-18" d="M1202.23,1507.25s-148.84,176.23-339.13,202c0,0-49.18-44.84-85.74-28.83s-86.72,86.66-86.72,86.66H935s231-8.14,346.47-148.23C1272.15,1569.82,1244.33,1540.54,1202.23,1507.25Z" transform="translate(-80.71 -69.47)"/><path class="cls-19" d="M1289.05,1094.71l32.57,108.62a12,12,0,0,1-4.64,13.3c-15.68,10.74-56.66,32.09-112.87,11.34a17.71,17.71,0,0,1-11.39-15.21l-7.72-94.62Z" transform="translate(-80.71 -69.47)"/><path class="cls-20" d="M1098.36,1006.75s16,112.59,59.26,147.22,127.52,8.55,156-76.33l-56.71-145.13Z" transform="translate(-80.71 -69.47)"/><path class="cls-21" d="M1263.28,1026.43A5.58,5.58,0,0,1,1256,1022c-1.56-10.39-5.45-31-13.35-45,0,0,4.13-14.77-37.33,7.54s-103.73,55.09-140.39,35.57c-35.74-19-72-114.8,22.52-97.06a5.57,5.57,0,0,0,6.63-5.83c-1.16-15.75.4-52,37.07-63.58,34.32-10.88,53.11,4.61,60.85,14a5.54,5.54,0,0,0,8.68-.14c10.28-13.42,38.2-42,79.3-23.87,33.85,14.92,39.12,35.77,38.56,48.76a5.56,5.56,0,0,0,7.92,5.3c10.36-4.77,27-7.26,43,12.76,22.08,27.67-9.48,51.67-19,58A5.57,5.57,0,0,0,1348,973c-.09,14.39-2.33,77.16-33.8,112.57a5.61,5.61,0,0,1-9.34-1.61l-24.23-57.72a5.6,5.6,0,0,0-6.88-3.16Z" transform="translate(-80.71 -69.47)"/><path class="cls-22" d="M1262.77,1038.14s14.79-60.25,37.26-40.68-5.85,62.61-31.6,70.82Z" transform="translate(-80.71 -69.47)"/><path class="cls-23" d="M702.94,1780.75,593.24,1414.9A37.39,37.39,0,0,0,560,1388.32l-148.11-10.13a21,21,0,0,0-21.26,27.91l122.64,349.38a30.73,30.73,0,0,0,25.93,20.41L685,1792.09Z" transform="translate(-80.71 -69.47)"/><path class="cls-8" d="M500.62,1538.89c8.19,16.54,22.34,26.22,31.59,21.64s10.13-21.71,1.94-38.24-22.34-26.22-31.6-21.63S492.43,1522.36,500.62,1538.89Z" transform="translate(-80.71 -69.47)"/><path class="cls-24" d="M685,1792.09c.24,0,.47,0,.71,0l310.79-15.71a13.93,13.93,0,0,0-1.41-27.82l-310.78,15.71a13.93,13.93,0,0,0,.69,27.84Z" transform="translate(-80.71 -69.47)"/><path class="cls-25" d="M1060.89,1477.49a2.16,2.16,0,0,1-2.16-2.14c-.21-65.61,25-152.44,25.29-153.31a2.15,2.15,0,1,1,4.13,1.22c-.25.86-25.32,87.1-25.11,152.07a2.16,2.16,0,0,1-2.15,2.16Z" transform="translate(-80.71 -69.47)"/><path class="cls-26" d="M1202.22,1509.4a2.15,2.15,0,0,1-1.69-3.49c.68-.86,68.24-86.73,91.36-145.32a2.12,2.12,0,0,1,2.79-1.21,2.15,2.15,0,0,1,1.22,2.79c-23.36,59.18-91.3,145.55-92,146.41A2.16,2.16,0,0,1,1202.22,1509.4Z" transform="translate(-80.71 -69.47)"/><path class="cls-27" d="M1298,1641.44l-12.29-17.38a2.16,2.16,0,0,1,3.52-2.49l10.28,14.53c95.85-42,155.19-156.69,155.78-157.85a2.16,2.16,0,0,1,3.84,2c-.6,1.18-61.28,118.48-159.52,160.54Z" transform="translate(-80.71 -69.47)"/></g></svg>